  0
SECTION
  2
HEADER
  9
$ACADVER
  1
AC1021
  9
$ACADMAINTVER
 70
    25
  9
$DWGCODEPAGE
  3
ANSI_1252
  9
$INSBASE
 10
0.0
 20
0.0
 30
0.0
  9
$EXTMIN
 10
-12.74874
 20
-16.32646
 30
0.0
  9
$EXTMAX
 10
2.22646
 20
2.22646
 30
0.0
  9
$LIMMIN
 10
0.0
 20
0.0
  9
$LIMMAX
 10
12.0
 20
9.0
  9
$ORTHOMODE
 70
     0
  9
$REGENMODE
 70
     1
  9
$FILLMODE
 70
     1
  9
$QTEXTMODE
 70
     0
  9
$MIRRTEXT
 70
     1
  9
$LTSCALE
 40
1.0
  9
$ATTMODE
 70
     1
  9
$TEXTSIZE
 40
0.2
  9
$TRACEWID
 40
0.05
  9
$TEXTSTYLE
  7
Standard
  9
$CLAYER
  8
0
  9
$CELTYPE
  6
ByLayer
  9
$CECOLOR
 62
   256
  9
$CELTSCALE
 40
1.0
  9
$DISPSILH
 70
     0
  9
$DIMSCALE
 40
1.0
  9
$DIMASZ
 40
0.18
  9
$DIMEXO
 40
0.0625
  9
$DIMDLI
 40
0.38
  9
$DIMRND
 40
0.0
  9
$DIMDLE
 40
0.0
  9
$DIMEXE
 40
0.18
  9
$DIMTP
 40
0.0
  9
$DIMTM
 40
0.0
  9
$DIMTXT
 40
0.18
  9
$DIMCEN
 40
0.09
  9
$DIMTSZ
 40
0.0
  9
$DIMTOL
 70
     0
  9
$DIMLIM
 70
     0
  9
$DIMTIH
 70
     1
  9
$DIMTOH
 70
     1
  9
$DIMSE1
 70
     0
  9
$DIMSE2
 70
     0
  9
$DIMTAD
 70
     0
  9
$DIMZIN
 70
     0
  9
$DIMBLK
  1

  9
$DIMASO
 70
     1
  9
$DIMSHO
 70
     1
  9
$DIMPOST
  1

  9
$DIMAPOST
  1

  9
$DIMALT
 70
     0
  9
$DIMALTD
 70
     2
  9
$DIMALTF
 40
25.4
  9
$DIMLFAC
 40
1.0
  9
$DIMTOFL
 70
     0
  9
$DIMTVP
 40
0.0
  9
$DIMTIX
 70
     0
  9
$DIMSOXD
 70
     0
  9
$DIMSAH
 70
     0
  9
$DIMBLK1
  1

  9
$DIMBLK2
  1

  9
$DIMSTYLE
  2
Standard
  9
$DIMCLRD
 70
     0
  9
$DIMCLRE
 70
     0
  9
$DIMCLRT
 70
     0
  9
$DIMTFAC
 40
1.0
  9
$DIMGAP
 40
0.09
  9
$DIMJUST
 70
     0
  9
$DIMSD1
 70
     0
  9
$DIMSD2
 70
     0
  9
$DIMTOLJ
 70
     1
  9
$DIMTZIN
 70
     0
  9
$DIMALTZ
 70
     0
  9
$DIMALTTZ
 70
     0
  9
$DIMUPT
 70
     0
  9
$DIMDEC
 70
     4
  9
$DIMTDEC
 70
     4
  9
$DIMALTU
 70
     2
  9
$DIMALTTD
 70
     2
  9
$DIMTXSTY
  7
Standard
  9
$DIMAUNIT
 70
     0
  9
$DIMADEC
 70
     0
  9
$DIMALTRND
 40
0.0
  9
$DIMAZIN
 70
     0
  9
$DIMDSEP
 70
    46
  9
$DIMATFIT
 70
     3
  9
$DIMFRAC
 70
     0
  9
$DIMLDRBLK
  1

  9
$DIMLUNIT
 70
     2
  9
$DIMLWD
 70
    -2
  9
$DIMLWE
 70
    -2
  9
$DIMTMOVE
 70
     0
  9
$DIMFXL
 40
1.0
  9
$DIMFXLON
 70
     0
  9
$DIMJOGANG
 40
0.7853981633974483
  9
$DIMTFILL
 70
     0
  9
$DIMTFILLCLR
 70
     0
  9
$DIMARCSYM
 70
     0
  9
$DIMLTYPE
  6

  9
$DIMLTEX1
  6

  9
$DIMLTEX2
  6

  9
$LUNITS
 70
     2
  9
$LUPREC
 70
     4
  9
$SKETCHINC
 40
0.1
  9
$FILLETRAD
 40
0.5
  9
$AUNITS
 70
     0
  9
$AUPREC
 70
     0
  9
$MENU
  1
.
  9
$ELEVATION
 40
0.0
  9
$PELEVATION
 40
0.0
  9
$THICKNESS
 40
0.0
  9
$LIMCHECK
 70
     0
  9
$CHAMFERA
 40
0.5
  9
$CHAMFERB
 40
0.5
  9
$CHAMFERC
 40
1.0
  9
$CHAMFERD
 40
0.0
  9
$SKPOLY
 70
     0
  9
$TDCREATE
 40
2460199.778268241
  9
$TDUCREATE
 40
2460199.736601574
  9
$TDUPDATE
 40
2460199.778268334
  9
$TDUUPDATE
 40
2460199.736601667
  9
$TDINDWG
 40
0.0000000116
  9
$TDUSRTIMER
 40
0.0000000116
  9
$USRTIMER
 70
     1
  9
$ANGBASE
 50
0.0
  9
$ANGDIR
 70
     0
  9
$PDMODE
 70
     0
  9
$PDSIZE
 40
0.0
  9
$PLINEWID
 40
0.0
  9
$SPLFRAME
 70
     0
  9
$SPLINETYPE
 70
     6
  9
$SPLINESEGS
 70
     8
  9
$HANDSEED
  5
AA
  9
$SURFTAB1
 70
     6
  9
$SURFTAB2
 70
     6
  9
$SURFTYPE
 70
     6
  9
$SURFU
 70
     6
  9
$SURFV
 70
     6
  9
$UCSBASE
  2

  9
$UCSNAME
  2

  9
$UCSORG
 10
0.0
 20
0.0
 30
0.0
  9
$UCSXDIR
 10
1.0
 20
0.0
 30
0.0
  9
$UCSYDIR
 10
0.0
 20
1.0
 30
0.0
  9
$UCSORTHOREF
  2

  9
$UCSORTHOVIEW
 70
     0
  9
$UCSORGTOP
 10
0.0
 20
0.0
 30
0.0
  9
$UCSORGBOTTOM
 10
0.0
 20
0.0
 30
0.0
  9
$UCSORGLEFT
 10
0.0
 20
0.0
 30
0.0
  9
$UCSORGRIGHT
 10
0.0
 20
0.0
 30
0.0
  9
$UCSORGFRONT
 10
0.0
 20
0.0
 30
0.0
  9
$UCSORGBACK
 10
0.0
 20
0.0
 30
0.0
  9
$PUCSBASE
  2

  9
$PUCSNAME
  2

  9
$PUCSORG
 10
0.0
 20
0.0
 30
0.0
  9
$PUCSXDIR
 10
1.0
 20
0.0
 30
0.0
  9
$PUCSYDIR
 10
0.0
 20
1.0
 30
0.0
  9
$PUCSORTHOREF
  2

  9
$PUCSORTHOVIEW
 70
     0
  9
$PUCSORGTOP
 10
0.0
 20
0.0
 30
0.0
  9
$PUCSORGBOTTOM
 10
0.0
 20
0.0
 30
0.0
  9
$PUCSORGLEFT
 10
0.0
 20
0.0
 30
0.0
  9
$PUCSORGRIGHT
 10
0.0
 20
0.0
 30
0.0
  9
$PUCSORGFRONT
 10
0.0
 20
0.0
 30
0.0
  9
$PUCSORGBACK
 10
0.0
 20
0.0
 30
0.0
  9
$USERI1
 70
     0
  9
$USERI2
 70
     0
  9
$USERI3
 70
     0
  9
$USERI4
 70
     0
  9
$USERI5
 70
     0
  9
$USERR1
 40
0.0
  9
$USERR2
 40
0.0
  9
$USERR3
 40
0.0
  9
$USERR4
 40
0.0
  9
$USERR5
 40
0.0
  9
$WORLDVIEW
 70
     1
  9
$SHADEDGE
 70
     3
  9
$SHADEDIF
 70
    70
  9
$TILEMODE
 70
     1
  9
$MAXACTVP
 70
    64
  9
$PINSBASE
 10
0.0
 20
0.0
 30
0.0
  9
$PLIMCHECK
 70
     0
  9
$PEXTMIN
 10
1.000000000000000E+20
 20
1.000000000000000E+20
 30
1.000000000000000E+20
  9
$PEXTMAX
 10
-1.000000000000000E+20
 20
-1.000000000000000E+20
 30
-1.000000000000000E+20
  9
$PLIMMIN
 10
0.0
 20
0.0
  9
$PLIMMAX
 10
12.0
 20
9.0
  9
$UNITMODE
 70
     0
  9
$VISRETAIN
 70
     1
  9
$PLINEGEN
 70
     0
  9
$PSLTSCALE
 70
     1
  9
$TREEDEPTH
 70
  3020
  9
$CMLSTYLE
  2
Standard
  9
$CMLJUST
 70
     0
  9
$CMLSCALE
 40
1.0
  9
$PROXYGRAPHICS
 70
     1
  9
$MEASUREMENT
 70
     0
  9
$CELWEIGHT
370
    -1
  9
$ENDCAPS
280
     0
  9
$JOINSTYLE
280
     0
  9
$LWDISPLAY
290
     0
  9
$INSUNITS
 70
     5
  9
$HYPERLINKBASE
  1

  9
$STYLESHEET
  1

  9
$XEDIT
290
     1
  9
$CEPSNTYPE
380
     0
  9
$PSTYLEMODE
290
     1
  9
$FINGERPRINTGUID
  2
{C09E7530-97E7-4497-AEC4-23AA642812F6}
  9
$VERSIONGUID
  2
{FAEB1C32-E019-11D5-929B-00C0DF256EC4}
  9
$EXTNAMES
290
     1
  9
$PSVPSCALE
 40
0.0
  9
$OLESTARTUP
290
     0
  9
$SORTENTS
280
   127
  9
$INDEXCTL
280
     0
  9
$HIDETEXT
280
     1
  9
$XCLIPFRAME
290
     0
  9
$HALOGAP
280
     0
  9
$OBSCOLOR
 70
   257
  9
$OBSLTYPE
280
     0
  9
$INTERSECTIONDISPLAY
280
     0
  9
$INTERSECTIONCOLOR
 70
   257
  9
$DIMASSOC
280
     2
  9
$PROJECTNAME
  1

  9
$CAMERADISPLAY
290
     0
  9
$LENSLENGTH
 40
50.0
  9
$CAMERAHEIGHT
 40
0.0
  9
$STEPSPERSEC
 40
2.0
  9
$STEPSIZE
 40
6.0
  9
$3DDWFPREC
 40
2.0
  9
$PSOLWIDTH
 40
0.25
  9
$PSOLHEIGHT
 40
4.0
  9
$LOFTANG1
 40
1.570796326794897
  9
$LOFTANG2
 40
1.570796326794897
  9
$LOFTMAG1
 40
0.0
  9
$LOFTMAG2
 40
0.0
  9
$LOFTPARAM
 70
     7
  9
$LOFTNORMALS
280
     1
  9
$LATITUDE
 40
37.795
  9
$LONGITUDE
 40
-122.394
  9
$NORTHDIRECTION
 40
0.0
  9
$TIMEZONE
 70
 -8000
  9
$LIGHTGLYPHDISPLAY
280
     1
  9
$TILEMODELIGHTSYNCH
280
     1
  9
$SOLIDHIST
280
     1
  9
$SHOWHIST
280
     1
  9
$DWFFRAME
280
     2
  9
$DGNFRAME
280
     2
  9
$REALWORLDSCALE
290
     1
  9
$INTERFERECOLOR
 62
   256
  9
$CSHADOW
280
     0
  9
$SHADOWPLANELOCATION
 40
0.0
  0
ENDSEC
  0
SECTION
  2
CLASSES
  0
CLASS
  1
ACDBDICTIONARYWDFLT
  2
AcDbDictionaryWithDefault
  3
ObjectDBX Classes
 90
        0
 91
        4
280
     0
281
     0
  0
CLASS
  1
VISUALSTYLE
  2
AcDbVisualStyle
  3
ObjectDBX Classes
 90
     4095
 91
        4
280
     0
281
     0
  0
CLASS
  1
MATERIAL
  2
AcDbMaterial
  3
ObjectDBX Classes
 90
     1153
 91
        4
280
     0
281
     0
  0
ENDSEC
  0
SECTION
  2
TABLES
  0
TABLE
  2
VPORT
  5
8
330
0
100
AcDbSymbolTable
 70
     1
  0
VPORT
  5
29
330
8
100
AcDbSymbolTableRecord
100
AcDbViewportTableRecord
  2
*Active
 70
     0
 10
0.0
 20
0.0
 11
1.0
 21
1.0
 12
10.42990654205607
 22
4.5
 13
0.0
 23
0.0
 14
0.5
 24
0.5
 15
0.5
 25
0.5
 16
0.0
 26
0.0
 36
1.0
 17
0.0
 27
0.0
 37
0.0
 40
9.0
 41
1.972972972850329
 42
50.0
 43
0.0
 44
0.0
 50
0.0
 51
0.0
 71
     0
 72
   100
 73
     1
 74
     3
 75
     0
 76
     0
 77
     0
 78
     0
281
     0
 65
     1
110
0.0
120
0.0
130
0.0
111
1.0
121
0.0
131
0.0
112
0.0
122
1.0
132
0.0
 79
     0
146
0.0
 60
     3
 61
     5
292
     1
282
     1
141
0.0
142
0.0
 63
   250
  0
ENDTAB
  0
TABLE
  2
LTYPE
  5
5
330
0
100
AcDbSymbolTable
 70
     1
  0
LTYPE
  5
14
330
5
100
AcDbSymbolTableRecord
100
AcDbLinetypeTableRecord
  2
ByBlock
 70
     0
  3

 72
    65
 73
     0
 40
0.0
  0
LTYPE
  5
15
330
5
100
AcDbSymbolTableRecord
100
AcDbLinetypeTableRecord
  2
ByLayer
 70
     0
  3

 72
    65
 73
     0
 40
0.0
  0
LTYPE
  5
16
330
5
100
AcDbSymbolTableRecord
100
AcDbLinetypeTableRecord
  2
Continuous
 70
     0
  3
Solid line
 72
    65
 73
     0
 40
0.0
  0
ENDTAB
  0
TABLE
  2
LAYER
  5
2
330
0
100
AcDbSymbolTable
 70
     2
  0
LAYER
  5
10
330
2
100
AcDbSymbolTableRecord
100
AcDbLayerTableRecord
  2
0
 70
     0
 62
     7
  6
Continuous
370
    -3
390
F
347
3E
  0
LAYER
  5
40
330
2
100
AcDbSymbolTableRecord
100
AcDbLayerTableRecord
  2
Layer 1
 70
     0
 62
     7
  6
Continuous
370
    -3
390
F
347
3E
  0
ENDTAB
  0
TABLE
  2
STYLE
  5
3
330
0
100
AcDbSymbolTable
 70
     1
  0
STYLE
  5
11
330
3
100
AcDbSymbolTableRecord
100
AcDbTextStyleTableRecord
  2
Standard
 70
     0
 40
0.0
 41
1.0
 50
0.0
 71
     0
 42
0.2
  3
txt
  4

  0
ENDTAB
  0
TABLE
  2
VIEW
  5
6
330
0
100
AcDbSymbolTable
 70
     0
  0
ENDTAB
  0
TABLE
  2
UCS
  5
7
330
0
100
AcDbSymbolTable
 70
     0
  0
ENDTAB
  0
TABLE
  2
APPID
  5
9
330
0
100
AcDbSymbolTable
 70
     2
  0
APPID
  5
12
330
9
100
AcDbSymbolTableRecord
100
AcDbRegAppTableRecord
  2
ACAD
 70
     0
  0
APPID
  5
3F
330
9
100
AcDbSymbolTableRecord
100
AcDbRegAppTableRecord
  2
ODA
 70
     0
  0
ENDTAB
  0
TABLE
  2
DIMSTYLE
  5
A
330
0
100
AcDbSymbolTable
 70
     1
100
AcDbDimStyleTable
  0
DIMSTYLE
105
27
330
A
100
AcDbSymbolTableRecord
100
AcDbDimStyleTableRecord
  2
Standard
 70
     0
178
     0
340
11
  0
ENDTAB
  0
TABLE
  2
BLOCK_RECORD
  5
1
330
0
100
AcDbSymbolTable
 70
     1
  0
BLOCK_RECORD
  5
1F
330
1
100
AcDbSymbolTableRecord
100
AcDbBlockTableRecord
  2
*Model_Space
340
22
 70
     0
280
     1
281
     0
  0
BLOCK_RECORD
  5
1B
330
1
100
AcDbSymbolTableRecord
100
AcDbBlockTableRecord
  2
*Paper_Space
340
1E
 70
     0
280
     1
281
     0
  0
BLOCK_RECORD
  5
23
330
1
100
AcDbSymbolTableRecord
100
AcDbBlockTableRecord
  2
*Paper_Space0
340
26
 70
     0
280
     1
281
     0
  0
ENDTAB
  0
ENDSEC
  0
SECTION
  2
BLOCKS
  0
BLOCK
  5
20
330
1F
100
AcDbEntity
  8
0
100
AcDbBlockBegin
  2
*Model_Space
 70
     0
 10
0.0
 20
0.0
 30
0.0
  3
*Model_Space
  1

  0
ENDBLK
  5
21
330
1F
100
AcDbEntity
  8
0
100
AcDbBlockEnd
  0
BLOCK
  5
1C
330
1B
100
AcDbEntity
 67
     1
  8
0
100
AcDbBlockBegin
  2
*Paper_Space
 70
     0
 10
0.0
 20
0.0
 30
0.0
  3
*Paper_Space
  1

  0
ENDBLK
  5
1D
330
1B
100
AcDbEntity
 67
     1
  8
0
100
AcDbBlockEnd
  0
BLOCK
  5
24
330
23
100
AcDbEntity
  8
0
100
AcDbBlockBegin
  2
*Paper_Space0
 70
     0
 10
0.0
 20
0.0
 30
0.0
  3
*Paper_Space0
  1

  0
ENDBLK
  5
25
330
23
100
AcDbEntity
  8
0
100
AcDbBlockEnd
  0
ENDSEC
  0
SECTION
  2
ENTITIES
  0
SPLINE
  5
41
330
1F
100
AcDbEntity
  8
Layer 1
370
    53
100
AcDbSpline
210
0.0
220
0.0
230
1.0
 70
    11
 71
     3
 72
    36
 73
    32
 74
     0
 42
0.0000000001
 43
0.0000000001
 12
1.0
 22
0.0
 32
0.0
 13
1.0
 23
0.0
 33
0.0
 40
0.0
 40
0.0
 40
0.0
 40
0.0
 40
0.1111111111111111
 40
0.1111111111111111
 40
0.1111111111111111
 40
0.1111111111111111
 40
0.2222222222222222
 40
0.2222222222222222
 40
0.2222222222222222
 40
0.2222222222222222
 40
0.3333333333333333
 40
0.3333333333333333
 40
0.3333333333333333
 40
0.3333333333333333
 40
0.4444444444444444
 40
0.4444444444444444
 40
0.4444444444444444
 40
0.4444444444444444
 40
0.5555555555555556
 40
0.5555555555555556
 40
0.5555555555555556
 40
0.5555555555555556
 40
0.6666666666666666
 40
0.6666666666666666
 40
0.6666666666666666
 40
0.6666666666666666
 40
0.7777777777777778
 40
0.7777777777777778
 40
0.7777777777777778
 40
0.7777777777777778
 40
1.0
 40
1.0
 40
1.0
 40
1.0
 10
-2.2
 20
-1.7
 30
0.0
 10
-2.2
 20
-1.7
 30
0.0
 10
-2.2
 20
1.7
 30
0.0
 10
-2.2
 20
1.7
 30
0.0
 10
-2.2
 20
1.7
 30
0.0
 10
-2.2
 20
1.97614
 30
0.0
 10
-1.97614
 20
2.2
 30
0.0
 10
-1.7
 20
2.2
 30
0.0
 10
-1.7
 20
2.2
 30
0.0
 10
-1.7
 20
2.2
 30
0.0
 10
1.7
 20
2.2
 30
0.0
 10
1.7
 20
2.2
 30
0.0
 10
1.7
 20
2.2
 30
0.0
 10
1.97614
 20
2.2
 30
0.0
 10
2.2
 20
1.97614
 30
0.0
 10
2.2
 20
1.7
 30
0.0
 10
2.2
 20
1.7
 30
0.0
 10
2.2
 20
1.7
 30
0.0
 10
2.2
 20
-1.7
 30
0.0
 10
2.2
 20
-1.7
 30
0.0
 10
2.2
 20
-1.7
 30
0.0
 10
2.2
 20
-1.97614
 30
0.0
 10
1.97614
 20
-2.2
 30
0.0
 10
1.7
 20
-2.2
 30
0.0
 10
1.7
 20
-2.2
 30
0.0
 10
1.7
 20
-2.2
 30
0.0
 10
-1.7
 20
-2.2
 30
0.0
 10
-1.7
 20
-2.2
 30
0.0
 10
-1.7
 20
-2.2
 30
0.0
 10
-1.97614
 20
-2.2
 30
0.0
 10
-2.2
 20
-1.97614
 30
0.0
 10
-2.2
 20
-1.7
 30
0.0
  0
ELLIPSE
  5
42
330
1F
100
AcDbEntity
  8
Layer 1
370
    53
100
AcDbEllipse
 10
0.00001
 20
-0.00001
 30
0.0
 11
0.0
 21
0.30001
 31
0.0
210
0.0
220
0.0
230
1.0
 40
1.0
 41
0.0
 42
6.283185307179586
  0
ELLIPSE
  5
43
330
1F
100
AcDbEntity
  8
Layer 1
370
    53
100
AcDbEllipse
 10
0.00001
 20
1.49999
 30
0.0
 11
0.0
 21
0.30001
 31
0.0
210
0.0
220
0.0
230
1.0
 40
1.0
 41
0.0
 42
6.283185307179586
  0
ELLIPSE
  5
44
330
1F
100
AcDbEntity
  8
Layer 1
370
    53
100
AcDbEllipse
 10
0.00001
 20
-1.50001
 30
0.0
 11
0.0
 21
0.30001
 31
0.0
210
0.0
220
0.0
230
1.0
 40
1.0
 41
0.0
 42
6.283185307179586
  0
ELLIPSE
  5
45
330
1F
100
AcDbEntity
  8
Layer 1
370
    53
100
AcDbEllipse
 10
-1.49999
 20
-0.00001
 30
0.0
 11
0.0
 21
0.30001
 31
0.0
210
0.0
220
0.0
230
1.0
 40
1.0
 41
0.0
 42
6.283185307179586
  0
ELLIPSE
  5
46
330
1F
100
AcDbEntity
  8
Layer 1
370
    53
100
AcDbEllipse
 10
-1.49999
 20
1.49999
 30
0.0
 11
0.0
 21
0.30001
 31
0.0
210
0.0
220
0.0
230
1.0
 40
1.0
 41
0.0
 42
6.283185307179586
  0
ELLIPSE
  5
47
330
1F
100
AcDbEntity
  8
Layer 1
370
    53
100
AcDbEllipse
 10
-1.49999
 20
-1.50001
 30
0.0
 11
0.0
 21
0.30001
 31
0.0
210
0.0
220
0.0
230
1.0
 40
1.0
 41
0.0
 42
6.283185307179586
  0
ELLIPSE
  5
48
330
1F
100
AcDbEntity
  8
Layer 1
370
    53
100
AcDbEllipse
 10
1.50001
 20
-0.00001
 30
0.0
 11
0.0
 21
0.30001
 31
0.0
210
0.0
220
0.0
230
1.0
 40
1.0
 41
0.0
 42
6.283185307179586
  0
ELLIPSE
  5
49
330
1F
100
AcDbEntity
  8
Layer 1
370
    53
100
AcDbEllipse
 10
1.50001
 20
1.49999
 30
0.0
 11
0.0
 21
0.30001
 31
0.0
210
0.0
220
0.0
230
1.0
 40
1.0
 41
0.0
 42
6.283185307179586
  0
ELLIPSE
  5
4A
330
1F
100
AcDbEntity
  8
Layer 1
370
    53
100
AcDbEllipse
 10
1.50001
 20
-1.50001
 30
0.0
 11
0.0
 21
0.30001
 31
0.0
210
0.0
220
0.0
230
1.0
 40
1.0
 41
0.0
 42
6.283185307179586
  0
ELLIPSE
  5
4B
330
1F
100
AcDbEntity
  8
Layer 1
370
    53
100
AcDbEllipse
 10
-0.75
 20
-1.5
 30
0.0
 11
0.0
 21
0.15
 31
0.0
210
0.0
220
0.0
230
1.0
 40
1.0
 41
0.0
 42
6.283185307179586
  0
ELLIPSE
  5
4C
330
1F
100
AcDbEntity
  8
Layer 1
370
    53
100
AcDbEllipse
 10
0.75
 20
-1.5
 30
0.0
 11
0.0
 21
0.15
 31
0.0
210
0.0
220
0.0
230
1.0
 40
1.0
 41
0.0
 42
6.283185307179586
  0
ELLIPSE
  5
4D
330
1F
100
AcDbEntity
  8
Layer 1
370
    53
100
AcDbEllipse
 10
-0.75
 20
0.0
 30
0.0
 11
0.0
 21
0.15
 31
0.0
210
0.0
220
0.0
230
1.0
 40
1.0
 41
0.0
 42
6.283185307179586
  0
ELLIPSE
  5
4E
330
1F
100
AcDbEntity
  8
Layer 1
370
    53
100
AcDbEllipse
 10
0.75
 20
0.0
 30
0.0
 11
0.0
 21
0.15
 31
0.0
210
0.0
220
0.0
230
1.0
 40
1.0
 41
0.0
 42
6.283185307179586
  0
ELLIPSE
  5
4F
330
1F
100
AcDbEntity
  8
Layer 1
370
    53
100
AcDbEllipse
 10
-0.75
 20
1.5
 30
0.0
 11
0.0
 21
0.15
 31
0.0
210
0.0
220
0.0
230
1.0
 40
1.0
 41
0.0
 42
6.283185307179586
  0
ELLIPSE
  5
50
330
1F
100
AcDbEntity
  8
Layer 1
370
    53
100
AcDbEllipse
 10
0.75
 20
1.5
 30
0.0
 11
0.0
 21
0.15
 31
0.0
210
0.0
220
0.0
230
1.0
 40
1.0
 41
0.0
 42
6.283185307179586
  0
ELLIPSE
  5
51
330
1F
100
AcDbEntity
  8
Layer 1
370
    53
100
AcDbEllipse
 10
-1.5
 20
-0.75
 30
0.0
 11
0.0
 21
0.15
 31
0.0
210
0.0
220
0.0
230
1.0
 40
1.0
 41
0.0
 42
6.283185307179586
  0
ELLIPSE
  5
52
330
1F
100
AcDbEntity
  8
Layer 1
370
    53
100
AcDbEllipse
 10
0.0
 20
-0.75
 30
0.0
 11
0.0
 21
0.15
 31
0.0
210
0.0
220
0.0
230
1.0
 40
1.0
 41
0.0
 42
6.283185307179586
  0
ELLIPSE
  5
53
330
1F
100
AcDbEntity
  8
Layer 1
370
    53
100
AcDbEllipse
 10
1.5
 20
-0.75
 30
0.0
 11
0.0
 21
0.15
 31
0.0
210
0.0
220
0.0
230
1.0
 40
1.0
 41
0.0
 42
6.283185307179586
  0
ELLIPSE
  5
54
330
1F
100
AcDbEntity
  8
Layer 1
370
    53
100
AcDbEllipse
 10
-1.5
 20
0.75
 30
0.0
 11
0.0
 21
0.15
 31
0.0
210
0.0
220
0.0
230
1.0
 40
1.0
 41
0.0
 42
6.283185307179586
  0
ELLIPSE
  5
55
330
1F
100
AcDbEntity
  8
Layer 1
370
    53
100
AcDbEllipse
 10
0.0
 20
0.75
 30
0.0
 11
0.0
 21
0.15
 31
0.0
210
0.0
220
0.0
230
1.0
 40
1.0
 41
0.0
 42
6.283185307179586
  0
ELLIPSE
  5
56
330
1F
100
AcDbEntity
  8
Layer 1
370
    53
100
AcDbEllipse
 10
1.5
 20
0.75
 30
0.0
 11
0.0
 21
0.15
 31
0.0
210
0.0
220
0.0
230
1.0
 40
1.0
 41
0.0
 42
6.283185307179586
  0
SPLINE
  5
57
330
1F
100
AcDbEntity
  8
Layer 1
370
    53
100
AcDbSpline
210
0.0
220
0.0
230
1.0
 70
    11
 71
     3
 72
    36
 73
    32
 74
     0
 42
0.0000000001
 43
0.0000000001
 12
1.0
 22
0.0
 32
0.0
 13
1.0
 23
0.0
 33
0.0
 40
0.0
 40
0.0
 40
0.0
 40
0.0
 40
0.1111111111111111
 40
0.1111111111111111
 40
0.1111111111111111
 40
0.1111111111111111
 40
0.2222222222222222
 40
0.2222222222222222
 40
0.2222222222222222
 40
0.2222222222222222
 40
0.3333333333333333
 40
0.3333333333333333
 40
0.3333333333333333
 40
0.3333333333333333
 40
0.4444444444444444
 40
0.4444444444444444
 40
0.4444444444444444
 40
0.4444444444444444
 40
0.5555555555555556
 40
0.5555555555555556
 40
0.5555555555555556
 40
0.5555555555555556
 40
0.6666666666666666
 40
0.6666666666666666
 40
0.6666666666666666
 40
0.6666666666666666
 40
0.7777777777777778
 40
0.7777777777777778
 40
0.7777777777777778
 40
0.7777777777777778
 40
1.0
 40
1.0
 40
1.0
 40
1.0
 10
-12.2
 20
-11.7
 30
0.0
 10
-12.2
 20
-11.7
 30
0.0
 10
-12.2
 20
-8.3
 30
0.0
 10
-12.2
 20
-8.3
 30
0.0
 10
-12.2
 20
-8.3
 30
0.0
 10
-12.2
 20
-8.02386
 30
0.0
 10
-11.97614
 20
-7.8
 30
0.0
 10
-11.7
 20
-7.8
 30
0.0
 10
-11.7
 20
-7.8
 30
0.0
 10
-11.7
 20
-7.8
 30
0.0
 10
-8.3
 20
-7.8
 30
0.0
 10
-8.3
 20
-7.8
 30
0.0
 10
-8.3
 20
-7.8
 30
0.0
 10
-8.02386
 20
-7.8
 30
0.0
 10
-7.8
 20
-8.02386
 30
0.0
 10
-7.8
 20
-8.3
 30
0.0
 10
-7.8
 20
-8.3
 30
0.0
 10
-7.8
 20
-8.3
 30
0.0
 10
-7.8
 20
-11.7
 30
0.0
 10
-7.8
 20
-11.7
 30
0.0
 10
-7.8
 20
-11.7
 30
0.0
 10
-7.8
 20
-11.97614
 30
0.0
 10
-8.02386
 20
-12.2
 30
0.0
 10
-8.3
 20
-12.2
 30
0.0
 10
-8.3
 20
-12.2
 30
0.0
 10
-8.3
 20
-12.2
 30
0.0
 10
-11.7
 20
-12.2
 30
0.0
 10
-11.7
 20
-12.2
 30
0.0
 10
-11.7
 20
-12.2
 30
0.0
 10
-11.97614
 20
-12.2
 30
0.0
 10
-12.2
 20
-11.97614
 30
0.0
 10
-12.2
 20
-11.7
 30
0.0
  0
ELLIPSE
  5
58
330
1F
100
AcDbEntity
  8
Layer 1
370
    53
100
AcDbEllipse
 10
-9.99999
 20
-14.50001
 30
0.0
 11
0.0
 21
0.30001
 31
0.0
210
0.0
220
0.0
230
1.0
 40
1.0
 41
0.0
 42
6.283185307179586
  0
ELLIPSE
  5
59
330
1F
100
AcDbEntity
  8
Layer 1
370
    53
100
AcDbEllipse
 10
-9.99999
 20
-8.50001
 30
0.0
 11
0.0
 21
0.30001
 31
0.0
210
0.0
220
0.0
230
1.0
 40
1.0
 41
0.0
 42
6.283185307179586
  0
ELLIPSE
  5
5A
330
1F
100
AcDbEntity
  8
Layer 1
370
    53
100
AcDbEllipse
 10
-9.99999
 20
-16.00001
 30
0.0
 11
0.0
 21
0.30001
 31
0.0
210
0.0
220
0.0
230
1.0
 40
1.0
 41
0.0
 42
6.283185307179586
  0
ELLIPSE
  5
5B
330
1F
100
AcDbEntity
  8
Layer 1
370
    53
100
AcDbEllipse
 10
-11.49999
 20
-14.50001
 30
0.0
 11
0.0
 21
0.30001
 31
0.0
210
0.0
220
0.0
230
1.0
 40
1.0
 41
0.0
 42
6.283185307179586
  0
ELLIPSE
  5
5C
330
1F
100
AcDbEntity
  8
Layer 1
370
    53
100
AcDbEllipse
 10
-11.49999
 20
-8.50001
 30
0.0
 11
0.0
 21
0.30001
 31
0.0
210
0.0
220
0.0
230
1.0
 40
1.0
 41
0.0
 42
6.283185307179586
  0
ELLIPSE
  5
5D
330
1F
100
AcDbEntity
  8
Layer 1
370
    53
100
AcDbEllipse
 10
-11.49999
 20
-11.50001
 30
0.0
 11
0.0
 21
0.30001
 31
0.0
210
0.0
220
0.0
230
1.0
 40
1.0
 41
0.0
 42
6.283185307179586
  0
ELLIPSE
  5
5E
330
1F
100
AcDbEntity
  8
Layer 1
370
    53
100
AcDbEllipse
 10
-8.49999
 20
-14.50001
 30
0.0
 11
0.0
 21
0.30001
 31
0.0
210
0.0
220
0.0
230
1.0
 40
1.0
 41
0.0
 42
6.283185307179586
  0
ELLIPSE
  5
5F
330
1F
100
AcDbEntity
  8
Layer 1
370
    53
100
AcDbEllipse
 10
-8.49999
 20
-8.50001
 30
0.0
 11
0.0
 21
0.30001
 31
0.0
210
0.0
220
0.0
230
1.0
 40
1.0
 41
0.0
 42
6.283185307179586
  0
ELLIPSE
  5
60
330
1F
100
AcDbEntity
  8
Layer 1
370
    53
100
AcDbEllipse
 10
-8.49999
 20
-11.50001
 30
0.0
 11
0.0
 21
0.30001
 31
0.0
210
0.0
220
0.0
230
1.0
 40
1.0
 41
0.0
 42
6.283185307179586
  0
ELLIPSE
  5
61
330
1F
100
AcDbEntity
  8
Layer 1
370
    53
100
AcDbEllipse
 10
-10.75
 20
-11.5
 30
0.0
 11
0.0
 21
0.15
 31
0.0
210
0.0
220
0.0
230
1.0
 40
1.0
 41
0.0
 42
6.283185307179586
  0
ELLIPSE
  5
62
330
1F
100
AcDbEntity
  8
Layer 1
370
    53
100
AcDbEllipse
 10
-9.25
 20
-11.5
 30
0.0
 11
0.0
 21
0.15
 31
0.0
210
0.0
220
0.0
230
1.0
 40
1.0
 41
0.0
 42
6.283185307179586
  0
ELLIPSE
  5
63
330
1F
100
AcDbEntity
  8
Layer 1
370
    53
100
AcDbEllipse
 10
-10.75
 20
-14.5
 30
0.0
 11
0.0
 21
0.15
 31
0.0
210
0.0
220
0.0
230
1.0
 40
1.0
 41
0.0
 42
6.283185307179586
  0
ELLIPSE
  5
64
330
1F
100
AcDbEntity
  8
Layer 1
370
    53
100
AcDbEllipse
 10
-9.25
 20
-14.5
 30
0.0
 11
0.0
 21
0.15
 31
0.0
210
0.0
220
0.0
230
1.0
 40
1.0
 41
0.0
 42
6.283185307179586
  0
ELLIPSE
  5
65
330
1F
100
AcDbEntity
  8
Layer 1
370
    53
100
AcDbEllipse
 10
-10.75
 20
-8.5
 30
0.0
 11
0.0
 21
0.15
 31
0.0
210
0.0
220
0.0
230
1.0
 40
1.0
 41
0.0
 42
6.283185307179586
  0
ELLIPSE
  5
66
330
1F
100
AcDbEntity
  8
Layer 1
370
    53
100
AcDbEllipse
 10
-9.25
 20
-8.5
 30
0.0
 11
0.0
 21
0.15
 31
0.0
210
0.0
220
0.0
230
1.0
 40
1.0
 41
0.0
 42
6.283185307179586
  0
ELLIPSE
  5
67
330
1F
100
AcDbEntity
  8
Layer 1
370
    53
100
AcDbEllipse
 10
-11.5
 20
-15.25
 30
0.0
 11
0.0
 21
0.15
 31
0.0
210
0.0
220
0.0
230
1.0
 40
1.0
 41
0.0
 42
6.283185307179586
  0
ELLIPSE
  5
68
330
1F
100
AcDbEntity
  8
Layer 1
370
    53
100
AcDbEllipse
 10
-10.0
 20
-15.25
 30
0.0
 11
0.0
 21
0.15
 31
0.0
210
0.0
220
0.0
230
1.0
 40
1.0
 41
0.0
 42
6.283185307179586
  0
ELLIPSE
  5
69
330
1F
100
AcDbEntity
  8
Layer 1
370
    53
100
AcDbEllipse
 10
-8.5
 20
-15.25
 30
0.0
 11
0.0
 21
0.15
 31
0.0
210
0.0
220
0.0
230
1.0
 40
1.0
 41
0.0
 42
6.283185307179586
  0
ELLIPSE
  5
6A
330
1F
100
AcDbEntity
  8
Layer 1
370
    53
100
AcDbEllipse
 10
-11.5
 20
-13.75
 30
0.0
 11
0.0
 21
0.15
 31
0.0
210
0.0
220
0.0
230
1.0
 40
1.0
 41
0.0
 42
6.283185307179586
  0
ELLIPSE
  5
6B
330
1F
100
AcDbEntity
  8
Layer 1
370
    53
100
AcDbEllipse
 10
-10.0
 20
-13.75
 30
0.0
 11
0.0
 21
0.15
 31
0.0
210
0.0
220
0.0
230
1.0
 40
1.0
 41
0.0
 42
6.283185307179586
  0
ELLIPSE
  5
6C
330
1F
100
AcDbEntity
  8
Layer 1
370
    53
100
AcDbEllipse
 10
-8.5
 20
-13.75
 30
0.0
 11
0.0
 21
0.15
 31
0.0
210
0.0
220
0.0
230
1.0
 40
1.0
 41
0.0
 42
6.283185307179586
  0
SPLINE
  5
6D
330
1F
100
AcDbEntity
  8
Layer 1
 62
     5
370
     9
100
AcDbSpline
210
0.0
220
0.0
230
1.0
 70
    11
 71
     3
 72
    56
 73
    52
 74
     0
 42
0.0000000001
 43
0.0000000001
 12
1.0
 22
0.0
 32
0.0
 13
1.0
 23
0.0
 33
0.0
 40
0.0
 40
0.0
 40
0.0
 40
0.0
 40
0.0714285714285714
 40
0.0714285714285714
 40
0.0714285714285714
 40
0.0714285714285714
 40
0.1428571428571428
 40
0.1428571428571428
 40
0.1428571428571428
 40
0.1428571428571428
 40
0.2142857142857143
 40
0.2142857142857143
 40
0.2142857142857143
 40
0.2142857142857143
 40
0.2857142857142857
 40
0.2857142857142857
 40
0.2857142857142857
 40
0.2857142857142857
 40
0.3571428571428572
 40
0.3571428571428572
 40
0.3571428571428572
 40
0.3571428571428572
 40
0.4285714285714285
 40
0.4285714285714285
 40
0.4285714285714285
 40
0.4285714285714285
 40
0.5
 40
0.5
 40
0.5
 40
0.5
 40
0.5714285714285714
 40
0.5714285714285714
 40
0.5714285714285714
 40
0.5714285714285714
 40
0.6428571428571429
 40
0.6428571428571429
 40
0.6428571428571429
 40
0.6428571428571429
 40
0.7142857142857143
 40
0.7142857142857143
 40
0.7142857142857143
 40
0.7142857142857143
 40
0.7857142857142857
 40
0.7857142857142857
 40
0.7857142857142857
 40
0.7857142857142857
 40
0.8571428571428571
 40
0.8571428571428571
 40
0.8571428571428571
 40
0.8571428571428571
 40
1.0
 40
1.0
 40
1.0
 40
1.0
 10
-12.62386
 20
-5.6565
 30
0.0
 10
-12.62386
 20
-5.6565
 30
0.0
 10
-12.62386
 20
-5.89794
 30
0.0
 10
-12.62386
 20
-5.89794
 30
0.0
 10
-12.62386
 20
-5.89794
 30
0.0
 10
-12.62386
 20
-5.89794
 30
0.0
 10
-12.74493
 20
-5.89794
 30
0.0
 10
-12.74493
 20
-5.89794
 30
0.0
 10
-12.74493
 20
-5.89794
 30
0.0
 10
-12.74493
 20
-5.89794
 30
0.0
 10
-12.74493
 20
-5.2587
 30
0.0
 10
-12.74493
 20
-5.2587
 30
0.0
 10
-12.74493
 20
-5.2587
 30
0.0
 10
-12.74493
 20
-5.2587
 30
0.0
 10
-12.62386
 20
-5.2587
 30
0.0
 10
-12.62386
 20
-5.2587
 30
0.0
 10
-12.62386
 20
-5.2587
 30
0.0
 10
-12.62386
 20
-5.2587
 30
0.0
 10
-12.62386
 20
-5.32813
 30
0.0
 10
-12.62386
 20
-5.32813
 30
0.0
 10
-12.62386
 20
-5.32813
 30
0.0
 10
-12.61116
 20
-5.30146
 30
0.0
 10
-12.59451
 20
-5.28142
 30
0.0
 10
-12.57391
 20
-5.26787
 30
0.0
 10
-12.57391
 20
-5.26787
 30
0.0
 10
-12.55316
 20
-5.25447
 30
0.0
 10
-12.52903
 20
-5.24769
 30
0.0
 10
-12.50123
 20
-5.24769
 30
0.0
 10
-12.50123
 20
-5.24769
 30
0.0
 10
-12.44832
 20
-5.24769
 30
0.0
 10
-12.40725
 20
-5.26886
 30
0.0
 10
-12.37804
 20
-5.31134
 30
0.0
 10
-12.37804
 20
-5.31134
 30
0.0
 10
-12.34883
 20
-5.35381
 30
0.0
 10
-12.3343
 20
-5.4135
 30
0.0
 10
-12.3343
 20
-5.49069
 30
0.0
 10
-12.3343
 20
-5.49069
 30
0.0
 10
-12.3343
 20
-5.56886
 30
0.0
 10
-12.34911
 20
-5.62898
 30
0.0
 10
-12.37875
 20
-5.67089
 30
0.0
 10
-12.37875
 20
-5.67089
 30
0.0
 10
-12.40824
 20
-5.7128
 30
0.0
 10
-12.45057
 20
-5.73368
 30
0.0
 10
-12.50533
 20
-5.73368
 30
0.0
 10
-12.50533
 20
-5.73368
 30
0.0
 10
-12.53016
 20
-5.73368
 30
0.0
 10
-12.55232
 20
-5.72733
 30
0.0
 10
-12.57207
 20
-5.71449
 30
0.0
 10
-12.57207
 20
-5.71449
 30
0.0
 10
-12.59169
 20
-5.70165
 30
0.0
 10
-12.60904
 20
-5.68232
 30
0.0
 10
-12.62386
 20
-5.6565
 30
0.0
  0
SPLINE
  5
6E
330
1F
100
AcDbEntity
  8
Layer 1
 62
     5
370
     9
100
AcDbSpline
210
0.0
220
0.0
230
1.0
 70
    11
 71
     3
 72
    36
 73
    32
 74
     0
 42
0.0000000001
 43
0.0000000001
 12
1.0
 22
0.0
 32
0.0
 13
1.0
 23
0.0
 33
0.0
 40
0.0
 40
0.0
 40
0.0
 40
0.0
 40
0.1111111111111111
 40
0.1111111111111111
 40
0.1111111111111111
 40
0.1111111111111111
 40
0.2222222222222222
 40
0.2222222222222222
 40
0.2222222222222222
 40
0.2222222222222222
 40
0.3333333333333333
 40
0.3333333333333333
 40
0.3333333333333333
 40
0.3333333333333333
 40
0.4444444444444444
 40
0.4444444444444444
 40
0.4444444444444444
 40
0.4444444444444444
 40
0.5555555555555556
 40
0.5555555555555556
 40
0.5555555555555556
 40
0.5555555555555556
 40
0.6666666666666666
 40
0.6666666666666666
 40
0.6666666666666666
 40
0.6666666666666666
 40
0.7777777777777778
 40
0.7777777777777778
 40
0.7777777777777778
 40
0.7777777777777778
 40
1.0
 40
1.0
 40
1.0
 40
1.0
 10
-12.45537
 20
-5.48984
 30
0.0
 10
-12.45537
 20
-5.44511
 30
0.0
 10
-12.46285
 20
-5.41011
 30
0.0
 10
-12.47767
 20
-5.38486
 30
0.0
 10
-12.47767
 20
-5.38486
 30
0.0
 10
-12.49248
 20
-5.35946
 30
0.0
 10
-12.51309
 20
-5.34676
 30
0.0
 10
-12.53919
 20
-5.34676
 30
0.0
 10
-12.53919
 20
-5.34676
 30
0.0
 10
-12.5653
 20
-5.34676
 30
0.0
 10
-12.58604
 20
-5.35946
 30
0.0
 10
-12.60114
 20
-5.38486
 30
0.0
 10
-12.60114
 20
-5.38486
 30
0.0
 10
-12.61624
 20
-5.41011
 30
0.0
 10
-12.62386
 20
-5.44511
 30
0.0
 10
-12.62386
 20
-5.48984
 30
0.0
 10
-12.62386
 20
-5.48984
 30
0.0
 10
-12.62386
 20
-5.53443
 30
0.0
 10
-12.61624
 20
-5.56957
 30
0.0
 10
-12.60114
 20
-5.59483
 30
0.0
 10
-12.60114
 20
-5.59483
 30
0.0
 10
-12.58604
 20
-5.62023
 30
0.0
 10
-12.5653
 20
-5.63293
 30
0.0
 10
-12.53919
 20
-5.63293
 30
0.0
 10
-12.53919
 20
-5.63293
 30
0.0
 10
-12.51309
 20
-5.63293
 30
0.0
 10
-12.49248
 20
-5.62023
 30
0.0
 10
-12.47767
 20
-5.59483
 30
0.0
 10
-12.47767
 20
-5.59483
 30
0.0
 10
-12.46285
 20
-5.56957
 30
0.0
 10
-12.45537
 20
-5.53443
 30
0.0
 10
-12.45537
 20
-5.48984
 30
0.0
  0
SPLINE
  5
6F
330
1F
100
AcDbEntity
  8
Layer 1
 62
     5
370
     9
100
AcDbSpline
210
0.0
220
0.0
230
1.0
 70
    11
 71
     3
 72
    52
 73
    48
 74
     0
 42
0.0000000001
 43
0.0000000001
 12
1.0
 22
0.0
 32
0.0
 13
1.0
 23
0.0
 33
0.0
 40
0.0
 40
0.0
 40
0.0
 40
0.0
 40
0.0769230769230769
 40
0.0769230769230769
 40
0.0769230769230769
 40
0.0769230769230769
 40
0.1538461538461539
 40
0.1538461538461539
 40
0.1538461538461539
 40
0.1538461538461539
 40
0.2307692307692308
 40
0.2307692307692308
 40
0.2307692307692308
 40
0.2307692307692308
 40
0.3076923076923077
 40
0.3076923076923077
 40
0.3076923076923077
 40
0.3076923076923077
 40
0.3846153846153846
 40
0.3846153846153846
 40
0.3846153846153846
 40
0.3846153846153846
 40
0.4615384615384616
 40
0.4615384615384616
 40
0.4615384615384616
 40
0.4615384615384616
 40
0.5384615384615384
 40
0.5384615384615384
 40
0.5384615384615384
 40
0.5384615384615384
 40
0.6153846153846154
 40
0.6153846153846154
 40
0.6153846153846154
 40
0.6153846153846154
 40
0.6923076923076923
 40
0.6923076923076923
 40
0.6923076923076923
 40
0.6923076923076923
 40
0.7692307692307693
 40
0.7692307692307693
 40
0.7692307692307693
 40
0.7692307692307693
 40
0.8461538461538461
 40
0.8461538461538461
 40
0.8461538461538461
 40
0.8461538461538461
 40
1.0
 40
1.0
 40
1.0
 40
1.0
 10
-12.13702
 20
-5.52865
 30
0.0
 10
-12.13702
 20
-5.52865
 30
0.0
 10
-12.13702
 20
-5.17149
 30
0.0
 10
-12.13702
 20
-5.17149
 30
0.0
 10
-12.13702
 20
-5.17149
 30
0.0
 10
-12.13702
 20
-5.17149
 30
0.0
 10
-12.25979
 20
-5.17149
 30
0.0
 10
-12.25979
 20
-5.17149
 30
0.0
 10
-12.25979
 20
-5.17149
 30
0.0
 10
-12.25979
 20
-5.17149
 30
0.0
 10
-12.25979
 20
-5.07836
 30
0.0
 10
-12.25979
 20
-5.07836
 30
0.0
 10
-12.25979
 20
-5.07836
 30
0.0
 10
-12.25979
 20
-5.07836
 30
0.0
 10
-12.01595
 20
-5.07836
 30
0.0
 10
-12.01595
 20
-5.07836
 30
0.0
 10
-12.01595
 20
-5.07836
 30
0.0
 10
-12.01595
 20
-5.07836
 30
0.0
 10
-12.01595
 20
-5.52865
 30
0.0
 10
-12.01595
 20
-5.52865
 30
0.0
 10
-12.01595
 20
-5.52865
 30
0.0
 10
-12.01595
 20
-5.56505
 30
0.0
 10
-12.0103
 20
-5.59074
 30
0.0
 10
-11.99901
 20
-5.60598
 30
0.0
 10
-11.99901
 20
-5.60598
 30
0.0
 10
-11.98772
 20
-5.62108
 30
0.0
 10
-11.96853
 20
-5.6287
 30
0.0
 10
-11.94158
 20
-5.6287
 30
0.0
 10
-11.94158
 20
-5.6287
 30
0.0
 10
-11.94158
 20
-5.6287
 30
0.0
 10
-11.84492
 20
-5.6287
 30
0.0
 10
-11.84492
 20
-5.6287
 30
0.0
 10
-11.84492
 20
-5.6287
 30
0.0
 10
-11.84492
 20
-5.6287
 30
0.0
 10
-11.84492
 20
-5.72183
 30
0.0
 10
-11.84492
 20
-5.72183
 30
0.0
 10
-11.84492
 20
-5.72183
 30
0.0
 10
-11.84492
 20
-5.72183
 30
0.0
 10
-11.97545
 20
-5.72183
 30
0.0
 10
-11.97545
 20
-5.72183
 30
0.0
 10
-11.97545
 20
-5.72183
 30
0.0
 10
-12.03302
 20
-5.72183
 30
0.0
 10
-12.07437
 20
-5.70687
 30
0.0
 10
-12.09948
 20
-5.6771
 30
0.0
 10
-12.09948
 20
-5.6771
 30
0.0
 10
-12.12446
 20
-5.64732
 30
0.0
 10
-12.13702
 20
-5.59793
 30
0.0
 10
-12.13702
 20
-5.52865
 30
0.0
  0
SPLINE
  5
70
330
1F
100
AcDbEntity
  8
Layer 1
 62
     5
370
     9
100
AcDbSpline
210
0.0
220
0.0
230
1.0
 70
    11
 71
     3
 72
    36
 73
    32
 74
     0
 42
0.0000000001
 43
0.0000000001
 12
1.0
 22
0.0
 32
0.0
 13
1.0
 23
0.0
 33
0.0
 40
0.0
 40
0.0
 40
0.0
 40
0.0
 40
0.1111111111111111
 40
0.1111111111111111
 40
0.1111111111111111
 40
0.1111111111111111
 40
0.2222222222222222
 40
0.2222222222222222
 40
0.2222222222222222
 40
0.2222222222222222
 40
0.3333333333333333
 40
0.3333333333333333
 40
0.3333333333333333
 40
0.3333333333333333
 40
0.4444444444444444
 40
0.4444444444444444
 40
0.4444444444444444
 40
0.4444444444444444
 40
0.5555555555555556
 40
0.5555555555555556
 40
0.5555555555555556
 40
0.5555555555555556
 40
0.6666666666666666
 40
0.6666666666666666
 40
0.6666666666666666
 40
0.6666666666666666
 40
0.7777777777777778
 40
0.7777777777777778
 40
0.7777777777777778
 40
0.7777777777777778
 40
1.0
 40
1.0
 40
1.0
 40
1.0
 10
-11.49792
 20
-5.50424
 30
0.0
 10
-11.54322
 20
-5.50424
 30
0.0
 10
-11.57483
 20
-5.51002
 30
0.0
 10
-11.59275
 20
-5.52159
 30
0.0
 10
-11.59275
 20
-5.52159
 30
0.0
 10
-11.61067
 20
-5.53316
 30
0.0
 10
-11.6197
 20
-5.55306
 30
0.0
 10
-11.6197
 20
-5.58114
 30
0.0
 10
-11.6197
 20
-5.58114
 30
0.0
 10
-11.6197
 20
-5.60217
 30
0.0
 10
-11.61349
 20
-5.61882
 30
0.0
 10
-11.60107
 20
-5.63124
 30
0.0
 10
-11.60107
 20
-5.63124
 30
0.0
 10
-11.58865
 20
-5.64365
 30
0.0
 10
-11.57186
 20
-5.64986
 30
0.0
 10
-11.55055
 20
-5.64986
 30
0.0
 10
-11.55055
 20
-5.64986
 30
0.0
 10
-11.51852
 20
-5.64986
 30
0.0
 10
-11.49369
 20
-5.63773
 30
0.0
 10
-11.47605
 20
-5.6136
 30
0.0
 10
-11.47605
 20
-5.6136
 30
0.0
 10
-11.45841
 20
-5.58947
 30
0.0
 10
-11.44952
 20
-5.55574
 30
0.0
 10
-11.44952
 20
-5.51256
 30
0.0
 10
-11.44952
 20
-5.51256
 30
0.0
 10
-11.44952
 20
-5.51256
 30
0.0
 10
-11.44952
 20
-5.50424
 30
0.0
 10
-11.44952
 20
-5.50424
 30
0.0
 10
-11.44952
 20
-5.50424
 30
0.0
 10
-11.44952
 20
-5.50424
 30
0.0
 10
-11.49792
 20
-5.50424
 30
0.0
 10
-11.49792
 20
-5.50424
 30
0.0
  0
SPLINE
  5
71
330
1F
100
AcDbEntity
  8
Layer 1
 62
     5
370
     9
100
AcDbSpline
210
0.0
220
0.0
230
1.0
 70
    11
 71
     3
 72
    84
 73
    80
 74
     0
 42
0.0000000001
 43
0.0000000001
 12
1.0
 22
0.0
 32
0.0
 13
1.0
 23
0.0
 33
0.0
 40
0.0
 40
0.0
 40
0.0
 40
0.0
 40
0.0476190476190476
 40
0.0476190476190476
 40
0.0476190476190476
 40
0.0476190476190476
 40
0.0952380952380952
 40
0.0952380952380952
 40
0.0952380952380952
 40
0.0952380952380952
 40
0.1428571428571428
 40
0.1428571428571428
 40
0.1428571428571428
 40
0.1428571428571428
 40
0.1904761904761905
 40
0.1904761904761905
 40
0.1904761904761905
 40
0.1904761904761905
 40
0.2380952380952381
 40
0.2380952380952381
 40
0.2380952380952381
 40
0.2380952380952381
 40
0.2857142857142857
 40
0.2857142857142857
 40
0.2857142857142857
 40
0.2857142857142857
 40
0.3333333333333333
 40
0.3333333333333333
 40
0.3333333333333333
 40
0.3333333333333333
 40
0.3809523809523809
 40
0.3809523809523809
 40
0.3809523809523809
 40
0.3809523809523809
 40
0.4285714285714285
 40
0.4285714285714285
 40
0.4285714285714285
 40
0.4285714285714285
 40
0.4761904761904762
 40
0.4761904761904762
 40
0.4761904761904762
 40
0.4761904761904762
 40
0.5238095238095238
 40
0.5238095238095238
 40
0.5238095238095238
 40
0.5238095238095238
 40
0.5714285714285714
 40
0.5714285714285714
 40
0.5714285714285714
 40
0.5714285714285714
 40
0.6190476190476191
 40
0.6190476190476191
 40
0.6190476190476191
 40
0.6190476190476191
 40
0.6666666666666666
 40
0.6666666666666666
 40
0.6666666666666666
 40
0.6666666666666666
 40
0.7142857142857143
 40
0.7142857142857143
 40
0.7142857142857143
 40
0.7142857142857143
 40
0.7619047619047619
 40
0.7619047619047619
 40
0.7619047619047619
 40
0.7619047619047619
 40
0.8095238095238095
 40
0.8095238095238095
 40
0.8095238095238095
 40
0.8095238095238095
 40
0.8571428571428571
 40
0.8571428571428571
 40
0.8571428571428571
 40
0.8571428571428571
 40
0.9047619047619048
 40
0.9047619047619048
 40
0.9047619047619048
 40
0.9047619047619048
 40
1.0
 40
1.0
 40
1.0
 40
1.0
 10
-11.32929
 20
-5.45753
 30
0.0
 10
-11.32929
 20
-5.45753
 30
0.0
 10
-11.32929
 20
-5.72183
 30
0.0
 10
-11.32929
 20
-5.72183
 30
0.0
 10
-11.32929
 20
-5.72183
 30
0.0
 10
-11.32929
 20
-5.72183
 30
0.0
 10
-11.44952
 20
-5.72183
 30
0.0
 10
-11.44952
 20
-5.72183
 30
0.0
 10
-11.44952
 20
-5.72183
 30
0.0
 10
-11.44952
 20
-5.72183
 30
0.0
 10
-11.44952
 20
-5.67018
 30
0.0
 10
-11.44952
 20
-5.67018
 30
0.0
 10
-11.44952
 20
-5.67018
 30
0.0
 10
-11.46405
 20
-5.6905
 30
0.0
 10
-11.48282
 20
-5.70617
 30
0.0
 10
-11.50568
 20
-5.71717
 30
0.0
 10
-11.50568
 20
-5.71717
 30
0.0
 10
-11.52854
 20
-5.72818
 30
0.0
 10
-11.5538
 20
-5.73368
 30
0.0
 10
-11.58132
 20
-5.73368
 30
0.0
 10
-11.58132
 20
-5.73368
 30
0.0
 10
-11.63395
 20
-5.73368
 30
0.0
 10
-11.67502
 20
-5.71971
 30
0.0
 10
-11.70437
 20
-5.69191
 30
0.0
 10
-11.70437
 20
-5.69191
 30
0.0
 10
-11.73372
 20
-5.66412
 30
0.0
 10
-11.74839
 20
-5.62517
 30
0.0
 10
-11.74839
 20
-5.57536
 30
0.0
 10
-11.74839
 20
-5.57536
 30
0.0
 10
-11.74839
 20
-5.52131
 30
0.0
 10
-11.7309
 20
-5.48138
 30
0.0
 10
-11.6959
 20
-5.45569
 30
0.0
 10
-11.6959
 20
-5.45569
 30
0.0
 10
-11.6609
 20
-5.42987
 30
0.0
 10
-11.60686
 20
-5.41703
 30
0.0
 10
-11.53362
 20
-5.41703
 30
0.0
 10
-11.53362
 20
-5.41703
 30
0.0
 10
-11.53362
 20
-5.41703
 30
0.0
 10
-11.44952
 20
-5.41703
 30
0.0
 10
-11.44952
 20
-5.41703
 30
0.0
 10
-11.44952
 20
-5.41703
 30
0.0
 10
-11.44952
 20
-5.41703
 30
0.0
 10
-11.44952
 20
-5.39685
 30
0.0
 10
-11.44952
 20
-5.39685
 30
0.0
 10
-11.44952
 20
-5.39685
 30
0.0
 10
-11.44952
 20
-5.37724
 30
0.0
 10
-11.45657
 20
-5.36256
 30
0.0
 10
-11.47083
 20
-5.35254
 30
0.0
 10
-11.47083
 20
-5.35254
 30
0.0
 10
-11.48508
 20
-5.34252
 30
0.0
 10
-11.50596
 20
-5.33744
 30
0.0
 10
-11.53362
 20
-5.33744
 30
0.0
 10
-11.53362
 20
-5.33744
 30
0.0
 10
-11.56255
 20
-5.33744
 30
0.0
 10
-11.59049
 20
-5.34111
 30
0.0
 10
-11.61772
 20
-5.34831
 30
0.0
 10
-11.61772
 20
-5.34831
 30
0.0
 10
-11.64482
 20
-5.35565
 30
0.0
 10
-11.67318
 20
-5.36722
 30
0.0
 10
-11.70267
 20
-5.38316
 30
0.0
 10
-11.70267
 20
-5.38316
 30
0.0
 10
-11.70267
 20
-5.38316
 30
0.0
 10
-11.70267
 20
-5.27987
 30
0.0
 10
-11.70267
 20
-5.27987
 30
0.0
 10
-11.70267
 20
-5.27987
 30
0.0
 10
-11.676
 20
-5.26886
 30
0.0
 10
-11.64877
 20
-5.26082
 30
0.0
 10
-11.62125
 20
-5.2556
 30
0.0
 10
-11.62125
 20
-5.2556
 30
0.0
 10
-11.59359
 20
-5.25038
 30
0.0
 10
-11.56438
 20
-5.24769
 30
0.0
 10
-11.53362
 20
-5.24769
 30
0.0
 10
-11.53362
 20
-5.24769
 30
0.0
 10
-11.45827
 20
-5.24769
 30
0.0
 10
-11.40549
 20
-5.26293
 30
0.0
 10
-11.37501
 20
-5.29356
 30
0.0
 10
-11.37501
 20
-5.29356
 30
0.0
 10
-11.34453
 20
-5.32418
 30
0.0
 10
-11.32929
 20
-5.37879
 30
0.0
 10
-11.32929
 20
-5.45753
 30
0.0
  0
SPLINE
  5
72
330
1F
100
AcDbEntity
  8
Layer 1
 62
     5
370
     9
100
AcDbSpline
210
0.0
220
0.0
230
1.0
 70
    11
 71
     3
 72
    76
 73
    72
 74
     0
 42
0.0000000001
 43
0.0000000001
 12
1.0
 22
0.0
 32
0.0
 13
1.0
 23
0.0
 33
0.0
 40
0.0
 40
0.0
 40
0.0
 40
0.0
 40
0.0526315789473684
 40
0.0526315789473684
 40
0.0526315789473684
 40
0.0526315789473684
 40
0.1052631578947368
 40
0.1052631578947368
 40
0.1052631578947368
 40
0.1052631578947368
 40
0.1578947368421053
 40
0.1578947368421053
 40
0.1578947368421053
 40
0.1578947368421053
 40
0.2105263157894737
 40
0.2105263157894737
 40
0.2105263157894737
 40
0.2105263157894737
 40
0.2631578947368421
 40
0.2631578947368421
 40
0.2631578947368421
 40
0.2631578947368421
 40
0.3157894736842105
 40
0.3157894736842105
 40
0.3157894736842105
 40
0.3157894736842105
 40
0.3684210526315789
 40
0.3684210526315789
 40
0.3684210526315789
 40
0.3684210526315789
 40
0.4210526315789473
 40
0.4210526315789473
 40
0.4210526315789473
 40
0.4210526315789473
 40
0.4736842105263158
 40
0.4736842105263158
 40
0.4736842105263158
 40
0.4736842105263158
 40
0.5263157894736842
 40
0.5263157894736842
 40
0.5263157894736842
 40
0.5263157894736842
 40
0.5789473684210527
 40
0.5789473684210527
 40
0.5789473684210527
 40
0.5789473684210527
 40
0.631578947368421
 40
0.631578947368421
 40
0.631578947368421
 40
0.631578947368421
 40
0.6842105263157895
 40
0.6842105263157895
 40
0.6842105263157895
 40
0.6842105263157895
 40
0.7368421052631579
 40
0.7368421052631579
 40
0.7368421052631579
 40
0.7368421052631579
 40
0.7894736842105263
 40
0.7894736842105263
 40
0.7894736842105263
 40
0.7894736842105263
 40
0.8421052631578947
 40
0.8421052631578947
 40
0.8421052631578947
 40
0.8421052631578947
 40
0.8947368421052632
 40
0.8947368421052632
 40
0.8947368421052632
 40
0.8947368421052632
 40
1.0
 40
1.0
 40
1.0
 40
1.0
 10
-10.99231
 20
-5.12747
 30
0.0
 10
-10.99231
 20
-5.12747
 30
0.0
 10
-10.99231
 20
-5.2587
 30
0.0
 10
-10.99231
 20
-5.2587
 30
0.0
 10
-10.99231
 20
-5.2587
 30
0.0
 10
-10.99231
 20
-5.2587
 30
0.0
 10
-10.83398
 20
-5.2587
 30
0.0
 10
-10.83398
 20
-5.2587
 30
0.0
 10
-10.83398
 20
-5.2587
 30
0.0
 10
-10.83398
 20
-5.2587
 30
0.0
 10
-10.83398
 20
-5.35184
 30
0.0
 10
-10.83398
 20
-5.35184
 30
0.0
 10
-10.83398
 20
-5.35184
 30
0.0
 10
-10.83398
 20
-5.35184
 30
0.0
 10
-10.99231
 20
-5.35184
 30
0.0
 10
-10.99231
 20
-5.35184
 30
0.0
 10
-10.99231
 20
-5.35184
 30
0.0
 10
-10.99231
 20
-5.35184
 30
0.0
 10
-10.99231
 20
-5.57084
 30
0.0
 10
-10.99231
 20
-5.57084
 30
0.0
 10
-10.99231
 20
-5.57084
 30
0.0
 10
-10.99231
 20
-5.59144
 30
0.0
 10
-10.98723
 20
-5.60626
 30
0.0
 10
-10.97721
 20
-5.61529
 30
0.0
 10
-10.97721
 20
-5.61529
 30
0.0
 10
-10.96719
 20
-5.62418
 30
0.0
 10
-10.9504
 20
-5.6287
 30
0.0
 10
-10.92698
 20
-5.6287
 30
0.0
 10
-10.92698
 20
-5.6287
 30
0.0
 10
-10.92698
 20
-5.6287
 30
0.0
 10
-10.83398
 20
-5.6287
 30
0.0
 10
-10.83398
 20
-5.6287
 30
0.0
 10
-10.83398
 20
-5.6287
 30
0.0
 10
-10.83398
 20
-5.6287
 30
0.0
 10
-10.83398
 20
-5.72183
 30
0.0
 10
-10.83398
 20
-5.72183
 30
0.0
 10
-10.83398
 20
-5.72183
 30
0.0
 10
-10.83398
 20
-5.72183
 30
0.0
 10
-10.93573
 20
-5.72183
 30
0.0
 10
-10.93573
 20
-5.72183
 30
0.0
 10
-10.93573
 20
-5.72183
 30
0.0
 10
-11.00515
 20
-5.72183
 30
0.0
 10
-11.05214
 20
-5.71068
 30
0.0
 10
-11.07656
 20
-5.68853
 30
0.0
 10
-11.07656
 20
-5.68853
 30
0.0
 10
-11.10111
 20
-5.66637
 30
0.0
 10
-11.11339
 20
-5.62517
 30
0.0
 10
-11.11339
 20
-5.56505
 30
0.0
 10
-11.11339
 20
-5.56505
 30
0.0
 10
-11.11339
 20
-5.56505
 30
0.0
 10
-11.11339
 20
-5.35184
 30
0.0
 10
-11.11339
 20
-5.35184
 30
0.0
 10
-11.11339
 20
-5.35184
 30
0.0
 10
-11.11339
 20
-5.35184
 30
0.0
 10
-11.23192
 20
-5.35184
 30
0.0
 10
-11.23192
 20
-5.35184
 30
0.0
 10
-11.23192
 20
-5.35184
 30
0.0
 10
-11.23192
 20
-5.35184
 30
0.0
 10
-11.23192
 20
-5.2587
 30
0.0
 10
-11.23192
 20
-5.2587
 30
0.0
 10
-11.23192
 20
-5.2587
 30
0.0
 10
-11.23192
 20
-5.2587
 30
0.0
 10
-11.11339
 20
-5.2587
 30
0.0
 10
-11.11339
 20
-5.2587
 30
0.0
 10
-11.11339
 20
-5.2587
 30
0.0
 10
-11.11339
 20
-5.2587
 30
0.0
 10
-11.11339
 20
-5.12747
 30
0.0
 10
-11.11339
 20
-5.12747
 30
0.0
 10
-11.11339
 20
-5.12747
 30
0.0
 10
-11.11339
 20
-5.12747
 30
0.0
 10
-10.99231
 20
-5.12747
 30
0.0
 10
-10.99231
 20
-5.12747
 30
0.0
  0
SPLINE
  5
73
330
1F
100
AcDbEntity
  8
Layer 1
 62
     5
370
     9
100
AcDbSpline
210
0.0
220
0.0
230
1.0
 70
    11
 71
     3
 72
    64
 73
    60
 74
     0
 42
0.0000000001
 43
0.0000000001
 12
1.0
 22
0.0
 32
0.0
 13
1.0
 23
0.0
 33
0.0
 40
0.0
 40
0.0
 40
0.0
 40
0.0
 40
0.0625
 40
0.0625
 40
0.0625
 40
0.0625
 40
0.125
 40
0.125
 40
0.125
 40
0.125
 40
0.1875
 40
0.1875
 40
0.1875
 40
0.1875
 40
0.25
 40
0.25
 40
0.25
 40
0.25
 40
0.3125
 40
0.3125
 40
0.3125
 40
0.3125
 40
0.375
 40
0.375
 40
0.375
 40
0.375
 40
0.4375
 40
0.4375
 40
0.4375
 40
0.4375
 40
0.5
 40
0.5
 40
0.5
 40
0.5
 40
0.5625
 40
0.5625
 40
0.5625
 40
0.5625
 40
0.625
 40
0.625
 40
0.625
 40
0.625
 40
0.6875
 40
0.6875
 40
0.6875
 40
0.6875
 40
0.75
 40
0.75
 40
0.75
 40
0.75
 40
0.8125
 40
0.8125
 40
0.8125
 40
0.8125
 40
0.875
 40
0.875
 40
0.875
 40
0.875
 40
1.0
 40
1.0
 40
1.0
 40
1.0
 10
-10.31243
 20
-5.69897
 30
0.0
 10
-10.34051
 20
-5.71054
 30
0.0
 10
-10.36916
 20
-5.71915
 30
0.0
 10
-10.39837
 20
-5.72493
 30
0.0
 10
-10.39837
 20
-5.72493
 30
0.0
 10
-10.42758
 20
-5.73072
 30
0.0
 10
-10.45848
 20
-5.73368
 30
0.0
 10
-10.49094
 20
-5.73368
 30
0.0
 10
-10.49094
 20
-5.73368
 30
0.0
 10
-10.56841
 20
-5.73368
 30
0.0
 10
-10.62753
 20
-5.71294
 30
0.0
 10
-10.66846
 20
-5.67145
 30
0.0
 10
-10.66846
 20
-5.67145
 30
0.0
 10
-10.70938
 20
-5.62997
 30
0.0
 10
-10.72984
 20
-5.57028
 30
0.0
 10
-10.72984
 20
-5.49238
 30
0.0
 10
-10.72984
 20
-5.49238
 30
0.0
 10
-10.72984
 20
-5.41689
 30
0.0
 10
-10.71008
 20
-5.3572
 30
0.0
 10
-10.67071
 20
-5.31345
 30
0.0
 10
-10.67071
 20
-5.31345
 30
0.0
 10
-10.63134
 20
-5.26957
 30
0.0
 10
-10.57758
 20
-5.24769
 30
0.0
 10
-10.50956
 20
-5.24769
 30
0.0
 10
-10.50956
 20
-5.24769
 30
0.0
 10
-10.44098
 20
-5.24769
 30
0.0
 10
-10.38764
 20
-5.26801
 30
0.0
 10
-10.34983
 20
-5.30866
 30
0.0
 10
-10.34983
 20
-5.30866
 30
0.0
 10
-10.31187
 20
-5.34944
 30
0.0
 10
-10.29296
 20
-5.40673
 30
0.0
 10
-10.29296
 20
-5.48067
 30
0.0
 10
-10.29296
 20
-5.48067
 30
0.0
 10
-10.29296
 20
-5.48067
 30
0.0
 10
-10.29296
 20
-5.52964
 30
0.0
 10
-10.29296
 20
-5.52964
 30
0.0
 10
-10.29296
 20
-5.52964
 30
0.0
 10
-10.29296
 20
-5.52964
 30
0.0
 10
-10.60623
 20
-5.52964
 30
0.0
 10
-10.60623
 20
-5.52964
 30
0.0
 10
-10.60623
 20
-5.52964
 30
0.0
 10
-10.60594
 20
-5.56604
 30
0.0
 10
-10.59522
 20
-5.59314
 30
0.0
 10
-10.57405
 20
-5.61106
 30
0.0
 10
-10.57405
 20
-5.61106
 30
0.0
 10
-10.55289
 20
-5.62898
 30
0.0
 10
-10.52128
 20
-5.63801
 30
0.0
 10
-10.47908
 20
-5.63801
 30
0.0
 10
-10.47908
 20
-5.63801
 30
0.0
 10
-10.45129
 20
-5.63801
 30
0.0
 10
-10.42391
 20
-5.63406
 30
0.0
 10
-10.39696
 20
-5.62602
 30
0.0
 10
-10.39696
 20
-5.62602
 30
0.0
 10
-10.37001
 20
-5.61811
 30
0.0
 10
-10.34192
 20
-5.60541
 30
0.0
 10
-10.31243
 20
-5.58806
 30
0.0
 10
-10.31243
 20
-5.58806
 30
0.0
 10
-10.31243
 20
-5.58806
 30
0.0
 10
-10.31243
 20
-5.69897
 30
0.0
 10
-10.31243
 20
-5.69897
 30
0.0
  0
SPLINE
  5
74
330
1F
100
AcDbEntity
  8
Layer 1
 62
     5
370
     9
100
AcDbSpline
210
0.0
220
0.0
230
1.0
 70
    11
 71
     3
 72
    24
 73
    20
 74
     0
 42
0.0000000001
 43
0.0000000001
 12
1.0
 22
0.0
 32
0.0
 13
1.0
 23
0.0
 33
0.0
 40
0.0
 40
0.0
 40
0.0
 40
0.0
 40
0.1666666666666667
 40
0.1666666666666667
 40
0.1666666666666667
 40
0.1666666666666667
 40
0.3333333333333333
 40
0.3333333333333333
 40
0.3333333333333333
 40
0.3333333333333333
 40
0.5
 40
0.5
 40
0.5
 40
0.5
 40
0.6666666666666666
 40
0.6666666666666666
 40
0.6666666666666666
 40
0.6666666666666666
 40
1.0
 40
1.0
 40
1.0
 40
1.0
 10
-10.41488
 20
-5.43904
 30
0.0
 10
-10.41544
 20
-5.40701
 30
0.0
 10
-10.42363
 20
-5.38274
 30
0.0
 10
-10.43943
 20
-5.36637
 30
0.0
 10
-10.43943
 20
-5.36637
 30
0.0
 10
-10.45538
 20
-5.34986
 30
0.0
 10
-10.47866
 20
-5.34168
 30
0.0
 10
-10.50956
 20
-5.34168
 30
0.0
 10
-10.50956
 20
-5.34168
 30
0.0
 10
-10.53736
 20
-5.34168
 30
0.0
 10
-10.55952
 20
-5.35014
 30
0.0
 10
-10.57603
 20
-5.36722
 30
0.0
 10
-10.57603
 20
-5.36722
 30
0.0
 10
-10.59254
 20
-5.38415
 30
0.0
 10
-10.60227
 20
-5.40828
 30
0.0
 10
-10.60538
 20
-5.43947
 30
0.0
 10
-10.60538
 20
-5.43947
 30
0.0
 10
-10.60538
 20
-5.43947
 30
0.0
 10
-10.41488
 20
-5.43904
 30
0.0
 10
-10.41488
 20
-5.43904
 30
0.0
  0
SPLINE
  5
75
330
1F
100
AcDbEntity
  8
Layer 1
 62
     5
370
     9
100
AcDbSpline
210
0.0
220
0.0
230
1.0
 70
    11
 71
     3
 72
    20
 73
    16
 74
     0
 42
0.0000000001
 43
0.0000000001
 12
1.0
 22
0.0
 32
0.0
 13
1.0
 23
0.0
 33
0.0
 40
0.0
 40
0.0
 40
0.0
 40
0.0
 40
0.2
 40
0.2
 40
0.2
 40
0.2
 40
0.4
 40
0.4
 40
0.4
 40
0.4
 40
0.6
 40
0.6
 40
0.6
 40
0.6
 40
1.0
 40
1.0
 40
1.0
 40
1.0
 10
-9.74854
 20
-5.8429
 30
0.0
 10
-9.74854
 20
-5.8429
 30
0.0
 10
-9.74854
 20
-5.92164
 30
0.0
 10
-9.74854
 20
-5.92164
 30
0.0
 10
-9.74854
 20
-5.92164
 30
0.0
 10
-9.74854
 20
-5.92164
 30
0.0
 10
-10.25824
 20
-5.92164
 30
0.0
 10
-10.25824
 20
-5.92164
 30
0.0
 10
-10.25824
 20
-5.92164
 30
0.0
 10
-10.25824
 20
-5.92164
 30
0.0
 10
-10.25824
 20
-5.8429
 30
0.0
 10
-10.25824
 20
-5.8429
 30
0.0
 10
-10.25824
 20
-5.8429
 30
0.0
 10
-10.25824
 20
-5.8429
 30
0.0
 10
-9.74854
 20
-5.8429
 30
0.0
 10
-9.74854
 20
-5.8429
 30
0.0
  0
SPLINE
  5
76
330
1F
100
AcDbEntity
  8
Layer 1
 62
     5
370
     9
100
AcDbSpline
210
0.0
220
0.0
230
1.0
 70
    11
 71
     3
 72
    36
 73
    32
 74
     0
 42
0.0000000001
 43
0.0000000001
 12
1.0
 22
0.0
 32
0.0
 13
1.0
 23
0.0
 33
0.0
 40
0.0
 40
0.0
 40
0.0
 40
0.0
 40
0.1111111111111111
 40
0.1111111111111111
 40
0.1111111111111111
 40
0.1111111111111111
 40
0.2222222222222222
 40
0.2222222222222222
 40
0.2222222222222222
 40
0.2222222222222222
 40
0.3333333333333333
 40
0.3333333333333333
 40
0.3333333333333333
 40
0.3333333333333333
 40
0.4444444444444444
 40
0.4444444444444444
 40
0.4444444444444444
 40
0.4444444444444444
 40
0.5555555555555556
 40
0.5555555555555556
 40
0.5555555555555556
 40
0.5555555555555556
 40
0.6666666666666666
 40
0.6666666666666666
 40
0.6666666666666666
 40
0.6666666666666666
 40
0.7777777777777778
 40
0.7777777777777778
 40
0.7777777777777778
 40
0.7777777777777778
 40
1.0
 40
1.0
 40
1.0
 40
1.0
 10
-9.54534
 20
-5.41378
 30
0.0
 10
-9.54534
 20
-5.39925
 30
0.0
 10
-9.5404
 20
-5.38683
 30
0.0
 10
-9.53038
 20
-5.37695
 30
0.0
 10
-9.53038
 20
-5.37695
 30
0.0
 10
-9.5205
 20
-5.36693
 30
0.0
 10
-9.50823
 20
-5.362
 30
0.0
 10
-9.49383
 20
-5.362
 30
0.0
 10
-9.49383
 20
-5.362
 30
0.0
 10
-9.4793
 20
-5.362
 30
0.0
 10
-9.46688
 20
-5.36693
 30
0.0
 10
-9.457
 20
-5.37695
 30
0.0
 10
-9.457
 20
-5.37695
 30
0.0
 10
-9.44698
 20
-5.38683
 30
0.0
 10
-9.44205
 20
-5.39925
 30
0.0
 10
-9.44205
 20
-5.41378
 30
0.0
 10
-9.44205
 20
-5.41378
 30
0.0
 10
-9.44205
 20
-5.42818
 30
0.0
 10
-9.44698
 20
-5.44045
 30
0.0
 10
-9.457
 20
-5.45033
 30
0.0
 10
-9.457
 20
-5.45033
 30
0.0
 10
-9.46688
 20
-5.46035
 30
0.0
 10
-9.4793
 20
-5.46529
 30
0.0
 10
-9.49383
 20
-5.46529
 30
0.0
 10
-9.49383
 20
-5.46529
 30
0.0
 10
-9.50823
 20
-5.46529
 30
0.0
 10
-9.5205
 20
-5.46035
 30
0.0
 10
-9.53038
 20
-5.45061
 30
0.0
 10
-9.53038
 20
-5.45061
 30
0.0
 10
-9.5404
 20
-5.44074
 30
0.0
 10
-9.54534
 20
-5.42846
 30
0.0
 10
-9.54534
 20
-5.41378
 30
0.0
  0
SPLINE
  5
77
330
1F
100
AcDbEntity
  8
Layer 1
 62
     5
370
     9
100
AcDbSpline
210
0.0
220
0.0
230
1.0
 70
    11
 71
     3
 72
    36
 73
    32
 74
     0
 42
0.0000000001
 43
0.0000000001
 12
1.0
 22
0.0
 32
0.0
 13
1.0
 23
0.0
 33
0.0
 40
0.0
 40
0.0
 40
0.0
 40
0.0
 40
0.1111111111111111
 40
0.1111111111111111
 40
0.1111111111111111
 40
0.1111111111111111
 40
0.2222222222222222
 40
0.2222222222222222
 40
0.2222222222222222
 40
0.2222222222222222
 40
0.3333333333333333
 40
0.3333333333333333
 40
0.3333333333333333
 40
0.3333333333333333
 40
0.4444444444444444
 40
0.4444444444444444
 40
0.4444444444444444
 40
0.4444444444444444
 40
0.5555555555555556
 40
0.5555555555555556
 40
0.5555555555555556
 40
0.5555555555555556
 40
0.6666666666666666
 40
0.6666666666666666
 40
0.6666666666666666
 40
0.6666666666666666
 40
0.7777777777777778
 40
0.7777777777777778
 40
0.7777777777777778
 40
0.7777777777777778
 40
1.0
 40
1.0
 40
1.0
 40
1.0
 10
-9.49383
 20
-5.19689
 30
0.0
 10
-9.52206
 20
-5.19689
 30
0.0
 10
-9.54252
 20
-5.21411
 30
0.0
 10
-9.5555
 20
-5.24854
 30
0.0
 10
-9.5555
 20
-5.24854
 30
0.0
 10
-9.56848
 20
-5.28297
 30
0.0
 10
-9.57497
 20
-5.33815
 30
0.0
 10
-9.57497
 20
-5.41378
 30
0.0
 10
-9.57497
 20
-5.41378
 30
0.0
 10
-9.57497
 20
-5.48928
 30
0.0
 10
-9.56848
 20
-5.54431
 30
0.0
 10
-9.5555
 20
-5.57874
 30
0.0
 10
-9.5555
 20
-5.57874
 30
0.0
 10
-9.54252
 20
-5.61317
 30
0.0
 10
-9.52206
 20
-5.63039
 30
0.0
 10
-9.49383
 20
-5.63039
 30
0.0
 10
-9.49383
 20
-5.63039
 30
0.0
 10
-9.46547
 20
-5.63039
 30
0.0
 10
-9.44487
 20
-5.61317
 30
0.0
 10
-9.43189
 20
-5.57874
 30
0.0
 10
-9.43189
 20
-5.57874
 30
0.0
 10
-9.4189
 20
-5.54431
 30
0.0
 10
-9.41241
 20
-5.48928
 30
0.0
 10
-9.41241
 20
-5.41378
 30
0.0
 10
-9.41241
 20
-5.41378
 30
0.0
 10
-9.41241
 20
-5.33815
 30
0.0
 10
-9.4189
 20
-5.28297
 30
0.0
 10
-9.43189
 20
-5.24854
 30
0.0
 10
-9.43189
 20
-5.24854
 30
0.0
 10
-9.44487
 20
-5.21411
 30
0.0
 10
-9.46547
 20
-5.19689
 30
0.0
 10
-9.49383
 20
-5.19689
 30
0.0
  0
SPLINE
  5
78
330
1F
100
AcDbEntity
  8
Layer 1
 62
     5
370
     9
100
AcDbSpline
210
0.0
220
0.0
230
1.0
 70
    11
 71
     3
 72
    36
 73
    32
 74
     0
 42
0.0000000001
 43
0.0000000001
 12
1.0
 22
0.0
 32
0.0
 13
1.0
 23
0.0
 33
0.0
 40
0.0
 40
0.0
 40
0.0
 40
0.0
 40
0.1111111111111111
 40
0.1111111111111111
 40
0.1111111111111111
 40
0.1111111111111111
 40
0.2222222222222222
 40
0.2222222222222222
 40
0.2222222222222222
 40
0.2222222222222222
 40
0.3333333333333333
 40
0.3333333333333333
 40
0.3333333333333333
 40
0.3333333333333333
 40
0.4444444444444444
 40
0.4444444444444444
 40
0.4444444444444444
 40
0.4444444444444444
 40
0.5555555555555556
 40
0.5555555555555556
 40
0.5555555555555556
 40
0.5555555555555556
 40
0.6666666666666666
 40
0.6666666666666666
 40
0.6666666666666666
 40
0.6666666666666666
 40
0.7777777777777778
 40
0.7777777777777778
 40
0.7777777777777778
 40
0.7777777777777778
 40
1.0
 40
1.0
 40
1.0
 40
1.0
 10
-9.69774
 20
-5.41378
 30
0.0
 10
-9.69774
 20
-5.30696
 30
0.0
 10
-9.68081
 20
-5.22681
 30
0.0
 10
-9.64694
 20
-5.17361
 30
0.0
 10
-9.64694
 20
-5.17361
 30
0.0
 10
-9.61293
 20
-5.12027
 30
0.0
 10
-9.56199
 20
-5.0936
 30
0.0
 10
-9.49383
 20
-5.0936
 30
0.0
 10
-9.49383
 20
-5.0936
 30
0.0
 10
-9.42554
 20
-5.0936
 30
0.0
 10
-9.37445
 20
-5.12013
 30
0.0
 10
-9.34045
 20
-5.17333
 30
0.0
 10
-9.34045
 20
-5.17333
 30
0.0
 10
-9.30658
 20
-5.22653
 30
0.0
 10
-9.28964
 20
-5.30668
 30
0.0
 10
-9.28964
 20
-5.41378
 30
0.0
 10
-9.28964
 20
-5.41378
 30
0.0
 10
-9.28964
 20
-5.52075
 30
0.0
 10
-9.30658
 20
-5.60076
 30
0.0
 10
-9.34045
 20
-5.65396
 30
0.0
 10
-9.34045
 20
-5.65396
 30
0.0
 10
-9.37445
 20
-5.70715
 30
0.0
 10
-9.42554
 20
-5.73368
 30
0.0
 10
-9.49383
 20
-5.73368
 30
0.0
 10
-9.49383
 20
-5.73368
 30
0.0
 10
-9.56199
 20
-5.73368
 30
0.0
 10
-9.61293
 20
-5.70701
 30
0.0
 10
-9.64694
 20
-5.65367
 30
0.0
 10
-9.64694
 20
-5.65367
 30
0.0
 10
-9.68081
 20
-5.60047
 30
0.0
 10
-9.69774
 20
-5.52046
 30
0.0
 10
-9.69774
 20
-5.41378
 30
0.0
  0
SPLINE
  5
79
330
1F
100
AcDbEntity
  8
Layer 1
 62
     5
370
     9
100
AcDbSpline
210
0.0
220
0.0
230
1.0
 70
    11
 71
     3
 72
   120
 73
   116
 74
     0
 42
0.0000000001
 43
0.0000000001
 12
1.0
 22
0.0
 32
0.0
 13
1.0
 23
0.0
 33
0.0
 40
0.0
 40
0.0
 40
0.0
 40
0.0
 40
0.0333333333333333
 40
0.0333333333333333
 40
0.0333333333333333
 40
0.0333333333333333
 40
0.0666666666666667
 40
0.0666666666666667
 40
0.0666666666666667
 40
0.0666666666666667
 40
0.1
 40
0.1
 40
0.1
 40
0.1
 40
0.1333333333333333
 40
0.1333333333333333
 40
0.1333333333333333
 40
0.1333333333333333
 40
0.1666666666666667
 40
0.1666666666666667
 40
0.1666666666666667
 40
0.1666666666666667
 40
0.2
 40
0.2
 40
0.2
 40
0.2
 40
0.2333333333333333
 40
0.2333333333333333
 40
0.2333333333333333
 40
0.2333333333333333
 40
0.2666666666666667
 40
0.2666666666666667
 40
0.2666666666666667
 40
0.2666666666666667
 40
0.3
 40
0.3
 40
0.3
 40
0.3
 40
0.3333333333333333
 40
0.3333333333333333
 40
0.3333333333333333
 40
0.3333333333333333
 40
0.3666666666666666
 40
0.3666666666666666
 40
0.3666666666666666
 40
0.3666666666666666
 40
0.4
 40
0.4
 40
0.4
 40
0.4
 40
0.4333333333333333
 40
0.4333333333333333
 40
0.4333333333333333
 40
0.4333333333333333
 40
0.4666666666666667
 40
0.4666666666666667
 40
0.4666666666666667
 40
0.4666666666666667
 40
0.5
 40
0.5
 40
0.5
 40
0.5
 40
0.5333333333333333
 40
0.5333333333333333
 40
0.5333333333333333
 40
0.5333333333333333
 40
0.5666666666666667
 40
0.5666666666666667
 40
0.5666666666666667
 40
0.5666666666666667
 40
0.6
 40
0.6
 40
0.6
 40
0.6
 40
0.6333333333333333
 40
0.6333333333333333
 40
0.6333333333333333
 40
0.6333333333333333
 40
0.6666666666666666
 40
0.6666666666666666
 40
0.6666666666666666
 40
0.6666666666666666
 40
0.7
 40
0.7
 40
0.7
 40
0.7
 40
0.7333333333333333
 40
0.7333333333333333
 40
0.7333333333333333
 40
0.7333333333333333
 40
0.7666666666666667
 40
0.7666666666666667
 40
0.7666666666666667
 40
0.7666666666666667
 40
0.8
 40
0.8
 40
0.8
 40
0.8
 40
0.8333333333333334
 40
0.8333333333333334
 40
0.8333333333333334
 40
0.8333333333333334
 40
0.8666666666666667
 40
0.8666666666666667
 40
0.8666666666666667
 40
0.8666666666666667
 40
0.9
 40
0.9
 40
0.9
 40
0.9
 40
0.9333333333333333
 40
0.9333333333333333
 40
0.9333333333333333
 40
0.9333333333333333
 40
1.0
 40
1.0
 40
1.0
 40
1.0
 10
-9.01179
 20
-5.44582
 30
0.0
 10
-9.01179
 20
-5.44582
 30
0.0
 10
-9.07713
 20
-5.44582
 30
0.0
 10
-9.07713
 20
-5.44582
 30
0.0
 10
-9.07713
 20
-5.44582
 30
0.0
 10
-9.07713
 20
-5.44582
 30
0.0
 10
-9.07713
 20
-5.33829
 30
0.0
 10
-9.07713
 20
-5.33829
 30
0.0
 10
-9.07713
 20
-5.33829
 30
0.0
 10
-9.07713
 20
-5.33829
 30
0.0
 10
-9.01179
 20
-5.33829
 30
0.0
 10
-9.01179
 20
-5.33829
 30
0.0
 10
-9.01179
 20
-5.33829
 30
0.0
 10
-8.98145
 20
-5.33829
 30
0.0
 10
-8.95789
 20
-5.33236
 30
0.0
 10
-8.94124
 20
-5.32037
 30
0.0
 10
-8.94124
 20
-5.32037
 30
0.0
 10
-8.92458
 20
-5.30837
 30
0.0
 10
-8.91626
 20
-5.29144
 30
0.0
 10
-8.91626
 20
-5.26971
 30
0.0
 10
-8.91626
 20
-5.26971
 30
0.0
 10
-8.91626
 20
-5.24671
 30
0.0
 10
-8.92458
 20
-5.22893
 30
0.0
 10
-8.94124
 20
-5.21609
 30
0.0
 10
-8.94124
 20
-5.21609
 30
0.0
 10
-8.95789
 20
-5.20324
 30
0.0
 10
-8.98145
 20
-5.19689
 30
0.0
 10
-9.01179
 20
-5.19689
 30
0.0
 10
-9.01179
 20
-5.19689
 30
0.0
 10
-9.03493
 20
-5.19689
 30
0.0
 10
-9.05977
 20
-5.19972
 30
0.0
 10
-9.0863
 20
-5.2055
 30
0.0
 10
-9.0863
 20
-5.2055
 30
0.0
 10
-9.11269
 20
-5.21129
 30
0.0
 10
-9.1402
 20
-5.21975
 30
0.0
 10
-9.16857
 20
-5.23076
 30
0.0
 10
-9.16857
 20
-5.23076
 30
0.0
 10
-9.16857
 20
-5.23076
 30
0.0
 10
-9.16857
 20
-5.11985
 30
0.0
 10
-9.16857
 20
-5.11985
 30
0.0
 10
-9.16857
 20
-5.11985
 30
0.0
 10
-9.1402
 20
-5.11138
 30
0.0
 10
-9.11226
 20
-5.10489
 30
0.0
 10
-9.0846
 20
-5.10037
 30
0.0
 10
-9.0846
 20
-5.10037
 30
0.0
 10
-9.05709
 20
-5.09586
 30
0.0
 10
-9.0307
 20
-5.0936
 30
0.0
 10
-9.0053
 20
-5.0936
 30
0.0
 10
-9.0053
 20
-5.0936
 30
0.0
 10
-8.94025
 20
-5.0936
 30
0.0
 10
-8.88959
 20
-5.10785
 30
0.0
 10
-8.85318
 20
-5.13622
 30
0.0
 10
-8.85318
 20
-5.13622
 30
0.0
 10
-8.81678
 20
-5.16458
 30
0.0
 10
-8.79857
 20
-5.20367
 30
0.0
 10
-8.79857
 20
-5.25362
 30
0.0
 10
-8.79857
 20
-5.25362
 30
0.0
 10
-8.79857
 20
-5.29017
 30
0.0
 10
-8.80901
 20
-5.32023
 30
0.0
 10
-8.8299
 20
-5.34351
 30
0.0
 10
-8.8299
 20
-5.34351
 30
0.0
 10
-8.85092
 20
-5.36679
 30
0.0
 10
-8.8807
 20
-5.38203
 30
0.0
 10
-8.9195
 20
-5.38909
 30
0.0
 10
-8.9195
 20
-5.38909
 30
0.0
 10
-8.87548
 20
-5.39685
 30
0.0
 10
-8.84203
 20
-5.41435
 30
0.0
 10
-8.81889
 20
-5.44186
 30
0.0
 10
-8.81889
 20
-5.44186
 30
0.0
 10
-8.79575
 20
-5.46924
 30
0.0
 10
-8.78418
 20
-5.50522
 30
0.0
 10
-8.78418
 20
-5.54981
 30
0.0
 10
-8.78418
 20
-5.54981
 30
0.0
 10
-8.78418
 20
-5.60965
 30
0.0
 10
-8.80337
 20
-5.65523
 30
0.0
 10
-8.84161
 20
-5.68655
 30
0.0
 10
-8.84161
 20
-5.68655
 30
0.0
 10
-8.87999
 20
-5.71802
 30
0.0
 10
-8.93559
 20
-5.73368
 30
0.0
 10
-9.00869
 20
-5.73368
 30
0.0
 10
-9.00869
 20
-5.73368
 30
0.0
 10
-9.03973
 20
-5.73368
 30
0.0
 10
-9.07035
 20
-5.73114
 30
0.0
 10
-9.10055
 20
-5.72592
 30
0.0
 10
-9.10055
 20
-5.72592
 30
0.0
 10
-9.13075
 20
-5.7207
 30
0.0
 10
-9.15968
 20
-5.71308
 30
0.0
 10
-9.18719
 20
-5.7032
 30
0.0
 10
-9.18719
 20
-5.7032
 30
0.0
 10
-9.18719
 20
-5.7032
 30
0.0
 10
-9.18719
 20
-5.58975
 30
0.0
 10
-9.18719
 20
-5.58975
 30
0.0
 10
-9.18719
 20
-5.58975
 30
0.0
 10
-9.16123
 20
-5.60273
 30
0.0
 10
-9.13329
 20
-5.61261
 30
0.0
 10
-9.10323
 20
-5.61938
 30
0.0
 10
-9.10323
 20
-5.61938
 30
0.0
 10
-9.07317
 20
-5.62616
 30
0.0
 10
-9.04157
 20
-5.62954
 30
0.0
 10
-9.00855
 20
-5.62954
 30
0.0
 10
-9.00855
 20
-5.62954
 30
0.0
 10
-8.97538
 20
-5.62954
 30
0.0
 10
-8.94928
 20
-5.62192
 30
0.0
 10
-8.92995
 20
-5.60668
 30
0.0
 10
-8.92995
 20
-5.60668
 30
0.0
 10
-8.91061
 20
-5.5913
 30
0.0
 10
-8.90102
 20
-5.57084
 30
0.0
 10
-8.90102
 20
-5.54488
 30
0.0
 10
-8.90102
 20
-5.54488
 30
0.0
 10
-8.90102
 20
-5.51327
 30
0.0
 10
-8.91061
 20
-5.48885
 30
0.0
 10
-8.92995
 20
-5.47164
 30
0.0
 10
-8.92995
 20
-5.47164
 30
0.0
 10
-8.94928
 20
-5.45442
 30
0.0
 10
-8.97651
 20
-5.44582
 30
0.0
 10
-9.01179
 20
-5.44582
 30
0.0
  0
SPLINE
  5
7A
330
1F
100
AcDbEntity
  8
Layer 1
 62
     5
370
     9
100
AcDbSpline
210
0.0
220
0.0
230
1.0
 70
    11
 71
     3
 72
    20
 73
    16
 74
     0
 42
0.0000000001
 43
0.0000000001
 12
1.0
 22
0.0
 32
0.0
 13
1.0
 23
0.0
 33
0.0
 40
0.0
 40
0.0
 40
0.0
 40
0.0
 40
0.2
 40
0.2
 40
0.2
 40
0.2
 40
0.4
 40
0.4
 40
0.4
 40
0.4
 40
0.6
 40
0.6
 40
0.6
 40
0.6
 40
1.0
 40
1.0
 40
1.0
 40
1.0
 10
-8.21944
 20
-5.8429
 30
0.0
 10
-8.21944
 20
-5.8429
 30
0.0
 10
-8.21944
 20
-5.92164
 30
0.0
 10
-8.21944
 20
-5.92164
 30
0.0
 10
-8.21944
 20
-5.92164
 30
0.0
 10
-8.21944
 20
-5.92164
 30
0.0
 10
-8.72914
 20
-5.92164
 30
0.0
 10
-8.72914
 20
-5.92164
 30
0.0
 10
-8.72914
 20
-5.92164
 30
0.0
 10
-8.72914
 20
-5.92164
 30
0.0
 10
-8.72914
 20
-5.8429
 30
0.0
 10
-8.72914
 20
-5.8429
 30
0.0
 10
-8.72914
 20
-5.8429
 30
0.0
 10
-8.72914
 20
-5.8429
 30
0.0
 10
-8.21944
 20
-5.8429
 30
0.0
 10
-8.21944
 20
-5.8429
 30
0.0
  0
SPLINE
  5
7B
330
1F
100
AcDbEntity
  8
Layer 1
 62
     5
370
     9
100
AcDbSpline
210
0.0
220
0.0
230
1.0
 70
    11
 71
     3
 72
    36
 73
    32
 74
     0
 42
0.0000000001
 43
0.0000000001
 12
1.0
 22
0.0
 32
0.0
 13
1.0
 23
0.0
 33
0.0
 40
0.0
 40
0.0
 40
0.0
 40
0.0
 40
0.1111111111111111
 40
0.1111111111111111
 40
0.1111111111111111
 40
0.1111111111111111
 40
0.2222222222222222
 40
0.2222222222222222
 40
0.2222222222222222
 40
0.2222222222222222
 40
0.3333333333333333
 40
0.3333333333333333
 40
0.3333333333333333
 40
0.3333333333333333
 40
0.4444444444444444
 40
0.4444444444444444
 40
0.4444444444444444
 40
0.4444444444444444
 40
0.5555555555555556
 40
0.5555555555555556
 40
0.5555555555555556
 40
0.5555555555555556
 40
0.6666666666666666
 40
0.6666666666666666
 40
0.6666666666666666
 40
0.6666666666666666
 40
0.7777777777777778
 40
0.7777777777777778
 40
0.7777777777777778
 40
0.7777777777777778
 40
1.0
 40
1.0
 40
1.0
 40
1.0
 10
-8.01624
 20
-5.41378
 30
0.0
 10
-8.01624
 20
-5.39925
 30
0.0
 10
-8.0113
 20
-5.38683
 30
0.0
 10
-8.00128
 20
-5.37695
 30
0.0
 10
-8.00128
 20
-5.37695
 30
0.0
 10
-7.9914
 20
-5.36693
 30
0.0
 10
-7.97913
 20
-5.362
 30
0.0
 10
-7.96473
 20
-5.362
 30
0.0
 10
-7.96473
 20
-5.362
 30
0.0
 10
-7.9502
 20
-5.362
 30
0.0
 10
-7.93778
 20
-5.36693
 30
0.0
 10
-7.9279
 20
-5.37695
 30
0.0
 10
-7.9279
 20
-5.37695
 30
0.0
 10
-7.91788
 20
-5.38683
 30
0.0
 10
-7.91295
 20
-5.39925
 30
0.0
 10
-7.91295
 20
-5.41378
 30
0.0
 10
-7.91295
 20
-5.41378
 30
0.0
 10
-7.91295
 20
-5.42818
 30
0.0
 10
-7.91788
 20
-5.44045
 30
0.0
 10
-7.9279
 20
-5.45033
 30
0.0
 10
-7.9279
 20
-5.45033
 30
0.0
 10
-7.93778
 20
-5.46035
 30
0.0
 10
-7.9502
 20
-5.46529
 30
0.0
 10
-7.96473
 20
-5.46529
 30
0.0
 10
-7.96473
 20
-5.46529
 30
0.0
 10
-7.97913
 20
-5.46529
 30
0.0
 10
-7.9914
 20
-5.46035
 30
0.0
 10
-8.00128
 20
-5.45061
 30
0.0
 10
-8.00128
 20
-5.45061
 30
0.0
 10
-8.0113
 20
-5.44074
 30
0.0
 10
-8.01624
 20
-5.42846
 30
0.0
 10
-8.01624
 20
-5.41378
 30
0.0
  0
SPLINE
  5
7C
330
1F
100
AcDbEntity
  8
Layer 1
 62
     5
370
     9
100
AcDbSpline
210
0.0
220
0.0
230
1.0
 70
    11
 71
     3
 72
    36
 73
    32
 74
     0
 42
0.0000000001
 43
0.0000000001
 12
1.0
 22
0.0
 32
0.0
 13
1.0
 23
0.0
 33
0.0
 40
0.0
 40
0.0
 40
0.0
 40
0.0
 40
0.1111111111111111
 40
0.1111111111111111
 40
0.1111111111111111
 40
0.1111111111111111
 40
0.2222222222222222
 40
0.2222222222222222
 40
0.2222222222222222
 40
0.2222222222222222
 40
0.3333333333333333
 40
0.3333333333333333
 40
0.3333333333333333
 40
0.3333333333333333
 40
0.4444444444444444
 40
0.4444444444444444
 40
0.4444444444444444
 40
0.4444444444444444
 40
0.5555555555555556
 40
0.5555555555555556
 40
0.5555555555555556
 40
0.5555555555555556
 40
0.6666666666666666
 40
0.6666666666666666
 40
0.6666666666666666
 40
0.6666666666666666
 40
0.7777777777777778
 40
0.7777777777777778
 40
0.7777777777777778
 40
0.7777777777777778
 40
1.0
 40
1.0
 40
1.0
 40
1.0
 10
-7.96473
 20
-5.19689
 30
0.0
 10
-7.99296
 20
-5.19689
 30
0.0
 10
-8.01342
 20
-5.21411
 30
0.0
 10
-8.0264
 20
-5.24854
 30
0.0
 10
-8.0264
 20
-5.24854
 30
0.0
 10
-8.03938
 20
-5.28297
 30
0.0
 10
-8.04587
 20
-5.33815
 30
0.0
 10
-8.04587
 20
-5.41378
 30
0.0
 10
-8.04587
 20
-5.41378
 30
0.0
 10
-8.04587
 20
-5.48928
 30
0.0
 10
-8.03938
 20
-5.54431
 30
0.0
 10
-8.0264
 20
-5.57874
 30
0.0
 10
-8.0264
 20
-5.57874
 30
0.0
 10
-8.01342
 20
-5.61317
 30
0.0
 10
-7.99296
 20
-5.63039
 30
0.0
 10
-7.96473
 20
-5.63039
 30
0.0
 10
-7.96473
 20
-5.63039
 30
0.0
 10
-7.93637
 20
-5.63039
 30
0.0
 10
-7.91577
 20
-5.61317
 30
0.0
 10
-7.90279
 20
-5.57874
 30
0.0
 10
-7.90279
 20
-5.57874
 30
0.0
 10
-7.8898
 20
-5.54431
 30
0.0
 10
-7.88331
 20
-5.48928
 30
0.0
 10
-7.88331
 20
-5.41378
 30
0.0
 10
-7.88331
 20
-5.41378
 30
0.0
 10
-7.88331
 20
-5.33815
 30
0.0
 10
-7.8898
 20
-5.28297
 30
0.0
 10
-7.90279
 20
-5.24854
 30
0.0
 10
-7.90279
 20
-5.24854
 30
0.0
 10
-7.91577
 20
-5.21411
 30
0.0
 10
-7.93637
 20
-5.19689
 30
0.0
 10
-7.96473
 20
-5.19689
 30
0.0
  0
SPLINE
  5
7D
330
1F
100
AcDbEntity
  8
Layer 1
 62
     5
370
     9
100
AcDbSpline
210
0.0
220
0.0
230
1.0
 70
    11
 71
     3
 72
    36
 73
    32
 74
     0
 42
0.0000000001
 43
0.0000000001
 12
1.0
 22
0.0
 32
0.0
 13
1.0
 23
0.0
 33
0.0
 40
0.0
 40
0.0
 40
0.0
 40
0.0
 40
0.1111111111111111
 40
0.1111111111111111
 40
0.1111111111111111
 40
0.1111111111111111
 40
0.2222222222222222
 40
0.2222222222222222
 40
0.2222222222222222
 40
0.2222222222222222
 40
0.3333333333333333
 40
0.3333333333333333
 40
0.3333333333333333
 40
0.3333333333333333
 40
0.4444444444444444
 40
0.4444444444444444
 40
0.4444444444444444
 40
0.4444444444444444
 40
0.5555555555555556
 40
0.5555555555555556
 40
0.5555555555555556
 40
0.5555555555555556
 40
0.6666666666666666
 40
0.6666666666666666
 40
0.6666666666666666
 40
0.6666666666666666
 40
0.7777777777777778
 40
0.7777777777777778
 40
0.7777777777777778
 40
0.7777777777777778
 40
1.0
 40
1.0
 40
1.0
 40
1.0
 10
-8.16864
 20
-5.41378
 30
0.0
 10
-8.16864
 20
-5.30696
 30
0.0
 10
-8.15171
 20
-5.22681
 30
0.0
 10
-8.11784
 20
-5.17361
 30
0.0
 10
-8.11784
 20
-5.17361
 30
0.0
 10
-8.08383
 20
-5.12027
 30
0.0
 10
-8.03289
 20
-5.0936
 30
0.0
 10
-7.96473
 20
-5.0936
 30
0.0
 10
-7.96473
 20
-5.0936
 30
0.0
 10
-7.89644
 20
-5.0936
 30
0.0
 10
-7.84535
 20
-5.12013
 30
0.0
 10
-7.81135
 20
-5.17333
 30
0.0
 10
-7.81135
 20
-5.17333
 30
0.0
 10
-7.77748
 20
-5.22653
 30
0.0
 10
-7.76054
 20
-5.30668
 30
0.0
 10
-7.76054
 20
-5.41378
 30
0.0
 10
-7.76054
 20
-5.41378
 30
0.0
 10
-7.76054
 20
-5.52075
 30
0.0
 10
-7.77748
 20
-5.60076
 30
0.0
 10
-7.81135
 20
-5.65396
 30
0.0
 10
-7.81135
 20
-5.65396
 30
0.0
 10
-7.84535
 20
-5.70715
 30
0.0
 10
-7.89644
 20
-5.73368
 30
0.0
 10
-7.96473
 20
-5.73368
 30
0.0
 10
-7.96473
 20
-5.73368
 30
0.0
 10
-8.03289
 20
-5.73368
 30
0.0
 10
-8.08383
 20
-5.70701
 30
0.0
 10
-8.11784
 20
-5.65367
 30
0.0
 10
-8.11784
 20
-5.65367
 30
0.0
 10
-8.15171
 20
-5.60047
 30
0.0
 10
-8.16864
 20
-5.52046
 30
0.0
 10
-8.16864
 20
-5.41378
 30
0.0
  0
SPLINE
  5
7E
330
1F
100
AcDbEntity
  8
Layer 1
 62
     5
370
     9
100
AcDbSpline
210
0.0
220
0.0
230
1.0
 70
    11
 71
     3
 72
   120
 73
   116
 74
     0
 42
0.0000000001
 43
0.0000000001
 12
1.0
 22
0.0
 32
0.0
 13
1.0
 23
0.0
 33
0.0
 40
0.0
 40
0.0
 40
0.0
 40
0.0
 40
0.0333333333333333
 40
0.0333333333333333
 40
0.0333333333333333
 40
0.0333333333333333
 40
0.0666666666666667
 40
0.0666666666666667
 40
0.0666666666666667
 40
0.0666666666666667
 40
0.1
 40
0.1
 40
0.1
 40
0.1
 40
0.1333333333333333
 40
0.1333333333333333
 40
0.1333333333333333
 40
0.1333333333333333
 40
0.1666666666666667
 40
0.1666666666666667
 40
0.1666666666666667
 40
0.1666666666666667
 40
0.2
 40
0.2
 40
0.2
 40
0.2
 40
0.2333333333333333
 40
0.2333333333333333
 40
0.2333333333333333
 40
0.2333333333333333
 40
0.2666666666666667
 40
0.2666666666666667
 40
0.2666666666666667
 40
0.2666666666666667
 40
0.3
 40
0.3
 40
0.3
 40
0.3
 40
0.3333333333333333
 40
0.3333333333333333
 40
0.3333333333333333
 40
0.3333333333333333
 40
0.3666666666666666
 40
0.3666666666666666
 40
0.3666666666666666
 40
0.3666666666666666
 40
0.4
 40
0.4
 40
0.4
 40
0.4
 40
0.4333333333333333
 40
0.4333333333333333
 40
0.4333333333333333
 40
0.4333333333333333
 40
0.4666666666666667
 40
0.4666666666666667
 40
0.4666666666666667
 40
0.4666666666666667
 40
0.5
 40
0.5
 40
0.5
 40
0.5
 40
0.5333333333333333
 40
0.5333333333333333
 40
0.5333333333333333
 40
0.5333333333333333
 40
0.5666666666666667
 40
0.5666666666666667
 40
0.5666666666666667
 40
0.5666666666666667
 40
0.6
 40
0.6
 40
0.6
 40
0.6
 40
0.6333333333333333
 40
0.6333333333333333
 40
0.6333333333333333
 40
0.6333333333333333
 40
0.6666666666666666
 40
0.6666666666666666
 40
0.6666666666666666
 40
0.6666666666666666
 40
0.7
 40
0.7
 40
0.7
 40
0.7
 40
0.7333333333333333
 40
0.7333333333333333
 40
0.7333333333333333
 40
0.7333333333333333
 40
0.7666666666666667
 40
0.7666666666666667
 40
0.7666666666666667
 40
0.7666666666666667
 40
0.8
 40
0.8
 40
0.8
 40
0.8
 40
0.8333333333333334
 40
0.8333333333333334
 40
0.8333333333333334
 40
0.8333333333333334
 40
0.8666666666666667
 40
0.8666666666666667
 40
0.8666666666666667
 40
0.8666666666666667
 40
0.9
 40
0.9
 40
0.9
 40
0.9
 40
0.9333333333333333
 40
0.9333333333333333
 40
0.9333333333333333
 40
0.9333333333333333
 40
1.0
 40
1.0
 40
1.0
 40
1.0
 10
-7.48269
 20
-5.44582
 30
0.0
 10
-7.48269
 20
-5.44582
 30
0.0
 10
-7.54803
 20
-5.44582
 30
0.0
 10
-7.54803
 20
-5.44582
 30
0.0
 10
-7.54803
 20
-5.44582
 30
0.0
 10
-7.54803
 20
-5.44582
 30
0.0
 10
-7.54803
 20
-5.33829
 30
0.0
 10
-7.54803
 20
-5.33829
 30
0.0
 10
-7.54803
 20
-5.33829
 30
0.0
 10
-7.54803
 20
-5.33829
 30
0.0
 10
-7.48269
 20
-5.33829
 30
0.0
 10
-7.48269
 20
-5.33829
 30
0.0
 10
-7.48269
 20
-5.33829
 30
0.0
 10
-7.45235
 20
-5.33829
 30
0.0
 10
-7.42879
 20
-5.33236
 30
0.0
 10
-7.41214
 20
-5.32037
 30
0.0
 10
-7.41214
 20
-5.32037
 30
0.0
 10
-7.39548
 20
-5.30837
 30
0.0
 10
-7.38716
 20
-5.29144
 30
0.0
 10
-7.38716
 20
-5.26971
 30
0.0
 10
-7.38716
 20
-5.26971
 30
0.0
 10
-7.38716
 20
-5.24671
 30
0.0
 10
-7.39548
 20
-5.22893
 30
0.0
 10
-7.41214
 20
-5.21609
 30
0.0
 10
-7.41214
 20
-5.21609
 30
0.0
 10
-7.42879
 20
-5.20324
 30
0.0
 10
-7.45235
 20
-5.19689
 30
0.0
 10
-7.48269
 20
-5.19689
 30
0.0
 10
-7.48269
 20
-5.19689
 30
0.0
 10
-7.50583
 20
-5.19689
 30
0.0
 10
-7.53067
 20
-5.19972
 30
0.0
 10
-7.5572
 20
-5.2055
 30
0.0
 10
-7.5572
 20
-5.2055
 30
0.0
 10
-7.58359
 20
-5.21129
 30
0.0
 10
-7.6111
 20
-5.21975
 30
0.0
 10
-7.63947
 20
-5.23076
 30
0.0
 10
-7.63947
 20
-5.23076
 30
0.0
 10
-7.63947
 20
-5.23076
 30
0.0
 10
-7.63947
 20
-5.11985
 30
0.0
 10
-7.63947
 20
-5.11985
 30
0.0
 10
-7.63947
 20
-5.11985
 30
0.0
 10
-7.6111
 20
-5.11138
 30
0.0
 10
-7.58316
 20
-5.10489
 30
0.0
 10
-7.5555
 20
-5.10037
 30
0.0
 10
-7.5555
 20
-5.10037
 30
0.0
 10
-7.52799
 20
-5.09586
 30
0.0
 10
-7.5016
 20
-5.0936
 30
0.0
 10
-7.4762
 20
-5.0936
 30
0.0
 10
-7.4762
 20
-5.0936
 30
0.0
 10
-7.41115
 20
-5.0936
 30
0.0
 10
-7.36049
 20
-5.10785
 30
0.0
 10
-7.32408
 20
-5.13622
 30
0.0
 10
-7.32408
 20
-5.13622
 30
0.0
 10
-7.28768
 20
-5.16458
 30
0.0
 10
-7.26947
 20
-5.20367
 30
0.0
 10
-7.26947
 20
-5.25362
 30
0.0
 10
-7.26947
 20
-5.25362
 30
0.0
 10
-7.26947
 20
-5.29017
 30
0.0
 10
-7.27991
 20
-5.32023
 30
0.0
 10
-7.3008
 20
-5.34351
 30
0.0
 10
-7.3008
 20
-5.34351
 30
0.0
 10
-7.32182
 20
-5.36679
 30
0.0
 10
-7.3516
 20
-5.38203
 30
0.0
 10
-7.3904
 20
-5.38909
 30
0.0
 10
-7.3904
 20
-5.38909
 30
0.0
 10
-7.34638
 20
-5.39685
 30
0.0
 10
-7.31293
 20
-5.41435
 30
0.0
 10
-7.28979
 20
-5.44186
 30
0.0
 10
-7.28979
 20
-5.44186
 30
0.0
 10
-7.26665
 20
-5.46924
 30
0.0
 10
-7.25508
 20
-5.50522
 30
0.0
 10
-7.25508
 20
-5.54981
 30
0.0
 10
-7.25508
 20
-5.54981
 30
0.0
 10
-7.25508
 20
-5.60965
 30
0.0
 10
-7.27427
 20
-5.65523
 30
0.0
 10
-7.31251
 20
-5.68655
 30
0.0
 10
-7.31251
 20
-5.68655
 30
0.0
 10
-7.35089
 20
-5.71802
 30
0.0
 10
-7.40649
 20
-5.73368
 30
0.0
 10
-7.47959
 20
-5.73368
 30
0.0
 10
-7.47959
 20
-5.73368
 30
0.0
 10
-7.51063
 20
-5.73368
 30
0.0
 10
-7.54125
 20
-5.73114
 30
0.0
 10
-7.57145
 20
-5.72592
 30
0.0
 10
-7.57145
 20
-5.72592
 30
0.0
 10
-7.60165
 20
-5.7207
 30
0.0
 10
-7.63058
 20
-5.71308
 30
0.0
 10
-7.65809
 20
-5.7032
 30
0.0
 10
-7.65809
 20
-5.7032
 30
0.0
 10
-7.65809
 20
-5.7032
 30
0.0
 10
-7.65809
 20
-5.58975
 30
0.0
 10
-7.65809
 20
-5.58975
 30
0.0
 10
-7.65809
 20
-5.58975
 30
0.0
 10
-7.63213
 20
-5.60273
 30
0.0
 10
-7.60419
 20
-5.61261
 30
0.0
 10
-7.57413
 20
-5.61938
 30
0.0
 10
-7.57413
 20
-5.61938
 30
0.0
 10
-7.54407
 20
-5.62616
 30
0.0
 10
-7.51247
 20
-5.62954
 30
0.0
 10
-7.47945
 20
-5.62954
 30
0.0
 10
-7.47945
 20
-5.62954
 30
0.0
 10
-7.44628
 20
-5.62954
 30
0.0
 10
-7.42018
 20
-5.62192
 30
0.0
 10
-7.40085
 20
-5.60668
 30
0.0
 10
-7.40085
 20
-5.60668
 30
0.0
 10
-7.38151
 20
-5.5913
 30
0.0
 10
-7.37192
 20
-5.57084
 30
0.0
 10
-7.37192
 20
-5.54488
 30
0.0
 10
-7.37192
 20
-5.54488
 30
0.0
 10
-7.37192
 20
-5.51327
 30
0.0
 10
-7.38151
 20
-5.48885
 30
0.0
 10
-7.40085
 20
-5.47164
 30
0.0
 10
-7.40085
 20
-5.47164
 30
0.0
 10
-7.42018
 20
-5.45442
 30
0.0
 10
-7.44741
 20
-5.44582
 30
0.0
 10
-7.48269
 20
-5.44582
 30
0.0
  0
LWPOLYLINE
  5
7F
330
1F
100
AcDbEntity
  8
Layer 1
370
    53
100
AcDbPolyline
 90
        5
 70
     1
 43
0.0
 10
-10.41096
 20
-11.505
 10
-10.35096
 20
-11.505
 10
-10.35096
 20
-11.445
 10
-10.41096
 20
-11.445
 10
-10.41096
 20
-11.505
  0
LWPOLYLINE
  5
80
330
1F
100
AcDbEntity
  8
Layer 1
370
    53
100
AcDbPolyline
 90
        5
 70
     1
 43
0.0
 10
-10.15696
 20
-11.505
 10
-10.09696
 20
-11.505
 10
-10.09696
 20
-11.445
 10
-10.15696
 20
-11.445
 10
-10.15696
 20
-11.505
  0
LWPOLYLINE
  5
81
330
1F
100
AcDbEntity
  8
Layer 1
370
    53
100
AcDbPolyline
 90
        5
 70
     1
 43
0.0
 10
-9.90296
 20
-11.505
 10
-9.84296
 20
-11.505
 10
-9.84296
 20
-11.445
 10
-9.90296
 20
-11.445
 10
-9.90296
 20
-11.505
  0
LWPOLYLINE
  5
82
330
1F
100
AcDbEntity
  8
Layer 1
370
    53
100
AcDbPolyline
 90
        5
 70
     1
 43
0.0
 10
-9.64896
 20
-11.505
 10
-9.58896
 20
-11.505
 10
-9.58896
 20
-11.445
 10
-9.64896
 20
-11.445
 10
-9.64896
 20
-11.505
  0
LWPOLYLINE
  5
83
330
1F
100
AcDbEntity
  8
Layer 1
370
    53
100
AcDbPolyline
 90
        5
 70
     1
 43
0.0
 10
-10.508
 20
-11.60201
 10
-9.492
 20
-11.60201
 10
-9.492
 20
-11.34801
 10
-10.508
 20
-11.34801
 10
-10.508
 20
-11.60201
  0
LWPOLYLINE
  5
84
330
1F
100
AcDbEntity
  8
Layer 1
370
    53
100
AcDbPolyline
 90
        5
 70
     1
 43
0.0
 10
-9.64896
 20
-12.20201
 10
-9.58896
 20
-12.20201
 10
-9.58896
 20
-11.60201
 10
-9.64896
 20
-11.60201
 10
-9.64896
 20
-12.20201
  0
LWPOLYLINE
  5
85
330
1F
100
AcDbEntity
  8
Layer 1
370
    53
100
AcDbPolyline
 90
        5
 70
     1
 43
0.0
 10
-9.90296
 20
-12.20201
 10
-9.84296
 20
-12.20201
 10
-9.84296
 20
-11.60201
 10
-9.90296
 20
-11.60201
 10
-9.90296
 20
-12.20201
  0
LWPOLYLINE
  5
86
330
1F
100
AcDbEntity
  8
Layer 1
370
    53
100
AcDbPolyline
 90
        5
 70
     1
 43
0.0
 10
-10.15696
 20
-12.20201
 10
-10.09696
 20
-12.20201
 10
-10.09696
 20
-11.60201
 10
-10.15696
 20
-11.60201
 10
-10.15696
 20
-12.20201
  0
LWPOLYLINE
  5
87
330
1F
100
AcDbEntity
  8
Layer 1
370
    53
100
AcDbPolyline
 90
        5
 70
     1
 43
0.0
 10
-10.41096
 20
-12.20201
 10
-10.35096
 20
-12.20201
 10
-10.35096
 20
-11.60201
 10
-10.41096
 20
-11.60201
 10
-10.41096
 20
-12.20201
  0
ENDSEC
  0
SECTION
  2
OBJECTS
  0
DICTIONARY
  5
C
330
0
100
AcDbDictionary
281
     1
  3
ACAD_GROUP
350
D
  3
ACAD_LAYOUT
350
1A
  3
ACAD_MATERIAL
350
3B
  3
ACAD_MLEADERSTYLE
350
A9
  3
ACAD_MLINESTYLE
350
17
  3
ACAD_PLOTSETTINGS
350
19
  3
ACAD_PLOTSTYLENAME
350
E
  3
ACAD_TABLESTYLE
350
A8
  3
ACAD_VISUALSTYLE
350
2A
  0
DICTIONARY
  5
D
102
{ACAD_REACTORS
330
C
102
}
330
C
100
AcDbDictionary
281
     1
  0
DICTIONARY
  5
1A
102
{ACAD_REACTORS
330
C
102
}
330
C
100
AcDbDictionary
281
     1
  3
Layout1
350
1E
  3
Layout2
350
26
  3
Model
350
22
  0
DICTIONARY
  5
3B
102
{ACAD_REACTORS
330
C
102
}
330
C
100
AcDbDictionary
281
     1
  3
ByBlock
350
3D
  3
ByLayer
350
3C
  3
Global
350
3E
  0
DICTIONARY
  5
A9
102
{ACAD_REACTORS
330
C
102
}
330
C
100
AcDbDictionary
281
     1
  0
DICTIONARY
  5
17
102
{ACAD_REACTORS
330
C
102
}
330
C
100
AcDbDictionary
281
     1
  3
Standard
350
18
  0
DICTIONARY
  5
19
102
{ACAD_REACTORS
330
C
102
}
330
C
100
AcDbDictionary
281
     1
  0
ACDBDICTIONARYWDFLT
  5
E
102
{ACAD_REACTORS
330
C
102
}
330
C
100
AcDbDictionary
281
     1
  3
Normal
350
F
100
AcDbDictionaryWithDefault
340
F
  0
DICTIONARY
  5
A8
102
{ACAD_REACTORS
330
C
102
}
330
C
100
AcDbDictionary
281
     1
  0
DICTIONARY
  5
2A
102
{ACAD_REACTORS
330
C
102
}
330
C
100
AcDbDictionary
281
     1
  3
2dWireframe
350
2F
  3
3D Hidden
350
31
  3
3dWireframe
350
30
  3
Basic
350
32
  3
Brighten
350
36
  3
ColorChange
350
3A
  3
Conceptual
350
34
  3
Dim
350
35
  3
Facepattern
350
39
  3
Flat
350
2B
  3
FlatWithEdges
350
2C
  3
Gouraud
350
2D
  3
GouraudWithEdges
350
2E
  3
Linepattern
350
38
  3
Realistic
350
33
  3
Thicken
350
37
  0
LAYOUT
  5
1E
102
{ACAD_REACTORS
330
1A
102
}
330
1A
100
AcDbPlotSettings
  1

  2
none_device
  4

  6

 40
0.0
 41
0.0
 42
0.0
 43
0.0
 44
0.0
 45
0.0
 46
0.0
 47
0.0
 48
0.0
 49
0.0
140
0.0
141
0.0
142
1.0
143
1.0
 70
   688
 72
     0
 73
     0
 74
     5
  7

 75
    16
 76
     0
 77
     2
 78
   300
147
1.0
148
0.0
149
0.0
100
AcDbLayout
  1
Layout1
 70
     1
 71
     1
 10
0.0
 20
0.0
 11
12.0
 21
9.0
 12
0.0
 22
0.0
 32
0.0
 14
1.000000000000000E+20
 24
1.000000000000000E+20
 34
1.000000000000000E+20
 15
-1.000000000000000E+20
 25
-1.000000000000000E+20
 35
-1.000000000000000E+20
146
0.0
 13
0.0
 23
0.0
 33
0.0
 16
1.0
 26
0.0
 36
0.0
 17
0.0
 27
1.0
 37
0.0
 76
     0
330
1B
  0
LAYOUT
  5
26
102
{ACAD_REACTORS
330
1A
102
}
330
1A
100
AcDbPlotSettings
  1

  2
none_device
  4

  6

 40
0.0
 41
0.0
 42
0.0
 43
0.0
 44
0.0
 45
0.0
 46
0.0
 47
0.0
 48
0.0
 49
0.0
140
0.0
141
0.0
142
1.0
143
1.0
 70
   688
 72
     0
 73
     0
 74
     5
  7

 75
    16
 76
     0
 77
     2
 78
   300
147
1.0
148
0.0
149
0.0
100
AcDbLayout
  1
Layout2
 70
     1
 71
     2
 10
0.0
 20
0.0
 11
0.0
 21
0.0
 12
0.0
 22
0.0
 32
0.0
 14
0.0
 24
0.0
 34
0.0
 15
0.0
 25
0.0
 35
0.0
146
0.0
 13
0.0
 23
0.0
 33
0.0
 16
1.0
 26
0.0
 36
0.0
 17
0.0
 27
1.0
 37
0.0
 76
     0
330
23
  0
LAYOUT
  5
22
102
{ACAD_REACTORS
330
1A
102
}
330
1A
100
AcDbPlotSettings
  1

  2
none_device
  4

  6

 40
0.0
 41
0.0
 42
0.0
 43
0.0
 44
0.0
 45
0.0
 46
0.0
 47
0.0
 48
0.0
 49
0.0
140
0.0
141
0.0
142
1.0
143
1.0
 70
  1712
 72
     0
 73
     0
 74
     0
  7

 75
     0
 76
     0
 77
     2
 78
   300
147
1.0
148
0.0
149
0.0
100
AcDbLayout
  1
Model
 70
     1
 71
     0
 10
0.0
 20
0.0
 11
12.0
 21
9.0
 12
0.0
 22
0.0
 32
0.0
 14
-12.74874
 24
-16.32646
 34
0.0
 15
2.22646
 25
2.22646
 35
0.0
146
0.0
 13
0.0
 23
0.0
 33
0.0
 16
1.0
 26
0.0
 36
0.0
 17
0.0
 27
1.0
 37
0.0
 76
     0
330
1F
331
29
  0
MATERIAL
  5
3D
102
{ACAD_REACTORS
330
3B
102
}
330
3B
100
AcDbMaterial
  1
ByBlock
 72
     1
 94
      127
  0
MATERIAL
  5
3C
102
{ACAD_REACTORS
330
3B
102
}
330
3B
100
AcDbMaterial
  1
ByLayer
 72
     1
 94
      127
  0
MATERIAL
  5
3E
102
{ACAD_REACTORS
330
3B
102
}
330
3B
100
AcDbMaterial
  1
Global
 72
     1
 94
      127
  0
MLINESTYLE
  5
18
102
{ACAD_REACTORS
330
17
102
}
330
17
100
AcDbMlineStyle
  2
Standard
 70
     0
  3

 62
   256
 51
90.0
 52
90.0
 71
     2
 49
0.5
 62
   256
  6
BYLAYER
 49
-0.5
 62
   256
  6
BYLAYER
  0
ACDBPLACEHOLDER
  5
F
102
{ACAD_REACTORS
330
E
102
}
330
E
  0
VISUALSTYLE
  5
2F
102
{ACAD_REACTORS
330
2A
102
}
102
{ACAD_XDICTIONARY
360
90
102
}
330
2A
100
AcDbVisualStyle
  2
2dWireframe
 70
     4
 71
     0
 72
     2
 73
     0
 90
        0
 40
-0.6
 41
-30.0
 62
     5
 63
     7
421
 16777215
 74
     1
 91
        4
 64
     7
 65
   257
 75
     1
175
     1
 42
1.0
 92
        0
 66
   257
 43
1.0
 76
     1
 77
     6
 78
     2
 67
     7
 79
     5
170
     0
171
     0
290
     0
174
     0
 93
        1
 44
0.0
173
     0
291
     0
 45
0.0
  0
VISUALSTYLE
  5
31
102
{ACAD_REACTORS
330
2A
102
}
102
{ACAD_XDICTIONARY
360
94
102
}
330
2A
100
AcDbVisualStyle
  2
3D Hidden
 70
     6
 71
     1
 72
     2
 73
     2
 90
        0
 40
-0.6
 41
-30.0
 62
     5
 63
     7
421
 16777215
 74
     2
 91
        2
 64
     7
 65
   257
 75
     2
175
     1
 42
40.0
 92
        0
 66
   257
 43
1.0
 76
     1
 77
     6
 78
     2
 67
     7
 79
     3
170
     0
171
     0
290
     0
174
     0
 93
        1
 44
0.0
173
     0
291
     0
 45
0.0
  0
VISUALSTYLE
  5
30
102
{ACAD_REACTORS
330
2A
102
}
102
{ACAD_XDICTIONARY
360
92
102
}
330
2A
100
AcDbVisualStyle
  2
3dWireframe
 70
     5
 71
     0
 72
     2
 73
     0
 90
        0
 40
-0.6
 41
-30.0
 62
     5
 63
     7
421
 16777215
 74
     1
 91
        4
 64
     7
 65
   257
 75
     1
175
     1
 42
1.0
 92
        0
 66
   257
 43
1.0
 76
     1
 77
     6
 78
     2
 67
     7
 79
     5
170
     0
171
     0
290
     0
174
     0
 93
        1
 44
0.0
173
     0
291
     0
 45
0.0
  0
VISUALSTYLE
  5
32
102
{ACAD_REACTORS
330
2A
102
}
102
{ACAD_XDICTIONARY
360
96
102
}
330
2A
100
AcDbVisualStyle
  2
Basic
 70
     7
 71
     1
 72
     0
 73
     1
 90
        0
 40
-0.6
 41
-30.0
 62
     5
 63
     7
421
 16777215
 74
     0
 91
        4
 64
     7
 65
   257
 75
     1
175
     1
 42
1.0
 92
        8
 66
     7
 43
1.0
 76
     1
 77
     6
 78
     2
 67
     7
 79
     5
170
     0
171
     0
290
     0
174
     0
 93
        1
 44
0.0
173
     0
291
     1
 45
0.0
  0
VISUALSTYLE
  5
36
102
{ACAD_REACTORS
330
2A
102
}
102
{ACAD_XDICTIONARY
360
9E
102
}
330
2A
100
AcDbVisualStyle
  2
Brighten
 70
    12
 71
     2
 72
     2
 73
     0
 90
        0
 40
-0.6
 41
-30.0
 62
     5
 63
     7
421
 16777215
 74
     1
 91
        4
 64
     7
 65
   257
 75
     1
175
     1
 42
1.0
 92
        8
 66
     7
 43
1.0
 76
     1
 77
     6
 78
     2
 67
     7
 79
     5
170
     0
171
     0
290
     0
174
     0
 93
        1
 44
50.0
173
     0
291
     1
 45
0.0
  0
VISUALSTYLE
  5
3A
102
{ACAD_REACTORS
330
2A
102
}
102
{ACAD_XDICTIONARY
360
A6
102
}
330
2A
100
AcDbVisualStyle
  2
ColorChange
 70
    16
 71
     2
 72
     2
 73
     3
 90
        0
 40
-0.6
 41
-30.0
 62
     5
 63
     8
421
  8421504
 74
     1
 91
        4
 64
     7
 65
   257
 75
     1
175
     1
 42
1.0
 92
        8
 66
     8
424
  8421504
 43
1.0
 76
     1
 77
     6
 78
     2
 67
     7
 79
     5
170
     0
171
     0
290
     0
174
     0
 93
        1
 44
0.0
173
     0
291
     1
 45
0.0
  0
VISUALSTYLE
  5
34
102
{ACAD_REACTORS
330
2A
102
}
102
{ACAD_XDICTIONARY
360
9A
102
}
330
2A
100
AcDbVisualStyle
  2
Conceptual
 70
     9
 71
     3
 72
     2
 73
     0
 90
        0
 40
-0.6
 41
-30.0
 62
     5
 63
     7
421
 16777215
 74
     2
 91
        2
 64
     7
 65
   257
 75
     1
175
     1
 42
40.0
 92
        8
 66
     7
 43
1.0
 76
     1
 77
     6
 78
     2
 67
     7
 79
     3
170
     0
171
     0
290
     0
174
     0
 93
        1
 44
0.0
173
     0
291
     0
 45
0.0
  0
VISUALSTYLE
  5
35
102
{ACAD_REACTORS
330
2A
102
}
102
{ACAD_XDICTIONARY
360
9C
102
}
330
2A
100
AcDbVisualStyle
  2
Dim
 70
    11
 71
     2
 72
     2
 73
     0
 90
        0
 40
-0.6
 41
-30.0
 62
     5
 63
     7
421
 16777215
 74
     1
 91
        4
 64
     7
 65
   257
 75
     1
175
     1
 42
1.0
 92
        8
 66
     7
 43
1.0
 76
     1
 77
     6
 78
     2
 67
     7
 79
     5
170
     0
171
     0
290
     0
174
     0
 93
        1
 44
-50.0
173
     0
291
     1
 45
0.0
  0
VISUALSTYLE
  5
39
102
{ACAD_REACTORS
330
2A
102
}
102
{ACAD_XDICTIONARY
360
A4
102
}
330
2A
100
AcDbVisualStyle
  2
Facepattern
 70
    15
 71
     2
 72
     2
 73
     0
 90
        0
 40
-0.6
 41
-30.0
 62
     5
 63
     7
421
 16777215
 74
     1
 91
        4
 64
     7
 65
   257
 75
     1
175
     1
 42
1.0
 92
        8
 66
     7
 43
1.0
 76
     1
 77
     6
 78
     2
 67
     7
 79
     5
170
     0
171
     0
290
     0
174
     0
 93
        1
 44
0.0
173
     0
291
     1
 45
0.0
  0
VISUALSTYLE
  5
2B
102
{ACAD_REACTORS
330
2A
102
}
102
{ACAD_XDICTIONARY
360
88
102
}
330
2A
100
AcDbVisualStyle
  2
Flat
 70
     0
 71
     2
 72
     1
 73
     1
 90
        2
 40
-0.6
 41
30.0
 62
     5
 63
     7
421
 16777215
 74
     0
 91
        4
 64
     7
 65
   257
 75
     1
175
     1
 42
1.0
 92
        8
 66
     7
 43
1.0
 76
     1
 77
     6
 78
     2
 67
     7
 79
     5
170
     0
171
     0
290
     0
174
     0
 93
       13
 44
0.0
173
     0
291
     1
 45
0.0
  0
VISUALSTYLE
  5
2C
102
{ACAD_REACTORS
330
2A
102
}
102
{ACAD_XDICTIONARY
360
8A
102
}
330
2A
100
AcDbVisualStyle
  2
FlatWithEdges
 70
     1
 71
     2
 72
     1
 73
     1
 90
        2
 40
-0.6
 41
30.0
 62
     5
 63
     7
421
 16777215
 74
     1
 91
        4
 64
     7
 65
   257
 75
     1
175
     1
 42
1.0
 92
        0
 66
   257
 43
1.0
 76
     1
 77
     6
 78
     2
 67
     7
 79
     5
170
     0
171
     0
290
     0
174
     0
 93
       13
 44
0.0
173
     0
291
     1
 45
0.0
  0
VISUALSTYLE
  5
2D
102
{ACAD_REACTORS
330
2A
102
}
102
{ACAD_XDICTIONARY
360
8C
102
}
330
2A
100
AcDbVisualStyle
  2
Gouraud
 70
     2
 71
     2
 72
     2
 73
     1
 90
        2
 40
-0.6
 41
30.0
 62
     5
 63
     7
421
 16777215
 74
     0
 91
        4
 64
     7
 65
   257
 75
     1
175
     1
 42
1.0
 92
        0
 66
     7
 43
1.0
 76
     1
 77
     6
 78
     2
 67
     7
 79
     5
170
     0
171
     0
290
     0
174
     0
 93
       13
 44
0.0
173
     0
291
     1
 45
0.0
  0
VISUALSTYLE
  5
2E
102
{ACAD_REACTORS
330
2A
102
}
102
{ACAD_XDICTIONARY
360
8E
102
}
330
2A
100
AcDbVisualStyle
  2
GouraudWithEdges
 70
     3
 71
     2
 72
     2
 73
     1
 90
        2
 40
-0.6
 41
30.0
 62
     5
 63
     7
421
 16777215
 74
     1
 91
        4
 64
     7
 65
   257
 75
     1
175
     1
 42
1.0
 92
        0
 66
   257
 43
1.0
 76
     1
 77
     6
 78
     2
 67
     7
 79
     5
170
     0
171
     0
290
     0
174
     0
 93
       13
 44
0.0
173
     0
291
     1
 45
0.0
  0
VISUALSTYLE
  5
38
102
{ACAD_REACTORS
330
2A
102
}
102
{ACAD_XDICTIONARY
360
A2
102
}
330
2A
100
AcDbVisualStyle
  2
Linepattern
 70
    14
 71
     2
 72
     2
 73
     0
 90
        0
 40
-0.6
 41
-30.0
 62
     5
 63
     7
421
 16777215
 74
     1
 91
        4
 64
     7
 65
   257
 75
     7
175
     7
 42
1.0
 92
        8
 66
     7
 43
1.0
 76
     1
 77
     6
 78
     2
 67
     7
 79
     5
170
     0
171
     0
290
     0
174
     0
 93
        1
 44
0.0
173
     0
291
     1
 45
0.0
  0
VISUALSTYLE
  5
33
102
{ACAD_REACTORS
330
2A
102
}
102
{ACAD_XDICTIONARY
360
98
102
}
330
2A
100
AcDbVisualStyle
  2
Realistic
 70
     8
 71
     2
 72
     2
 73
     0
 90
        0
 40
-0.6
 41
-30.0
 62
     5
 63
     7
421
 16777215
 74
     1
 91
        0
 64
     7
 65
   257
 75
     1
175
     1
 42
1.0
 92
        8
 66
     8
424
  7895160
 43
1.0
 76
     1
 77
     6
 78
     2
 67
     7
 79
     5
170
     0
171
     0
290
     0
174
     0
 93
       13
 44
0.0
173
     0
291
     0
 45
0.0
  0
VISUALSTYLE
  5
37
102
{ACAD_REACTORS
330
2A
102
}
102
{ACAD_XDICTIONARY
360
A0
102
}
330
2A
100
AcDbVisualStyle
  2
Thicken
 70
    13
 71
     2
 72
     2
 73
     0
 90
        0
 40
-0.6
 41
-30.0
 62
     5
 63
     7
421
 16777215
 74
     1
 91
        4
 64
     7
 65
   257
 75
     1
175
     1
 42
1.0
 92
       12
 66
     7
 43
1.0
 76
     1
 77
     6
 78
     2
 67
     7
 79
     5
170
     0
171
     0
290
     0
174
     0
 93
        1
 44
0.0
173
     0
291
     1
 45
0.0
  0
DICTIONARY
  5
90
330
2F
100
AcDbDictionary
280
     1
281
     1
  3
ACAD_XREC_ROUNDTRIP
360
91
  0
DICTIONARY
  5
94
330
31
100
AcDbDictionary
280
     1
281
     1
  3
ACAD_XREC_ROUNDTRIP
360
95
  0
DICTIONARY
  5
92
330
30
100
AcDbDictionary
280
     1
281
     1
  3
ACAD_XREC_ROUNDTRIP
360
93
  0
DICTIONARY
  5
96
330
32
100
AcDbDictionary
280
     1
281
     1
  3
ACAD_XREC_ROUNDTRIP
360
97
  0
DICTIONARY
  5
9E
330
36
100
AcDbDictionary
280
     1
281
     1
  3
ACAD_XREC_ROUNDTRIP
360
9F
  0
DICTIONARY
  5
A6
330
3A
100
AcDbDictionary
280
     1
281
     1
  3
ACAD_XREC_ROUNDTRIP
360
A7
  0
DICTIONARY
  5
9A
330
34
100
AcDbDictionary
280
     1
281
     1
  3
ACAD_XREC_ROUNDTRIP
360
9B
  0
DICTIONARY
  5
9C
330
35
100
AcDbDictionary
280
     1
281
     1
  3
ACAD_XREC_ROUNDTRIP
360
9D
  0
DICTIONARY
  5
A4
330
39
100
AcDbDictionary
280
     1
281
     1
  3
ACAD_XREC_ROUNDTRIP
360
A5
  0
DICTIONARY
  5
88
330
2B
100
AcDbDictionary
280
     1
281
     1
  3
ACAD_XREC_ROUNDTRIP
360
89
  0
DICTIONARY
  5
8A
330
2C
100
AcDbDictionary
280
     1
281
     1
  3
ACAD_XREC_ROUNDTRIP
360
8B
  0
DICTIONARY
  5
8C
330
2D
100
AcDbDictionary
280
     1
281
     1
  3
ACAD_XREC_ROUNDTRIP
360
8D
  0
DICTIONARY
  5
8E
330
2E
100
AcDbDictionary
280
     1
281
     1
  3
ACAD_XREC_ROUNDTRIP
360
8F
  0
DICTIONARY
  5
A2
330
38
100
AcDbDictionary
280
     1
281
     1
  3
ACAD_XREC_ROUNDTRIP
360
A3
  0
DICTIONARY
  5
98
330
33
100
AcDbDictionary
280
     1
281
     1
  3
ACAD_XREC_ROUNDTRIP
360
99
  0
DICTIONARY
  5
A0
330
37
100
AcDbDictionary
280
     1
281
     1
  3
ACAD_XREC_ROUNDTRIP
360
A1
  0
XRECORD
  5
91
102
{ACAD_REACTORS
330
90
102
}
330
90
100
AcDbXrecord
280
     1
102
RTVSPropertyOp0
 70
     1
102
RTVSPropertyOp1
 70
     1
102
RTVSPropertyOp2
 70
     1
102
RTVSPropertyOp3
 70
     1
102
RTVSPropertyOp4
 70
     1
102
RTVSPropertyOp5
 70
     1
102
RTVSPropertyOp6
 70
     1
102
RTVSPropertyOp7
 70
     1
102
RTVSPropertyOp8
 70
     1
102
RTVSPropertyOp9
 70
     1
102
RTVSPropertyOp10
 70
     1
102
RTVSPropertyOp11
 70
     1
102
RTVSPropertyOp12
 70
     1
102
RTVSPropertyOp13
 70
     1
102
RTVSPropertyOp14
 70
     1
102
RTVSPropertyOp15
 70
     1
102
RTVSPropertyOp16
 70
     1
102
RTVSPropertyOp17
 70
     1
102
RTVSPropertyOp18
 70
     1
102
RTVSPropertyOp19
 70
     1
102
RTVSPropertyOp20
 70
     1
102
RTVSPropertyOp21
 70
     1
102
RTVSPropertyOp22
 70
     1
102
RTVSPropertyOp23
 70
     1
102
RTVSPropertyOp24
 70
     1
102
RTVSPropertyOp25
 70
     1
102
RTVSPropertyOp26
 70
     1
102
RTVSPropertyOp27
 70
     1
102
RTVSPropertyOp28
 70
     1
102
RTVSPropertyOp29
 70
     1
102
RTVSPropertyOp30
 70
     1
102
RTVSPropertyOp31
 70
     1
102
RTVSPropertyOp32
 70
     1
  0
XRECORD
  5
95
102
{ACAD_REACTORS
330
94
102
}
330
94
100
AcDbXrecord
280
     1
102
RTVSPropertyOp0
 70
     1
102
RTVSPropertyOp1
 70
     1
102
RTVSPropertyOp2
 70
     1
102
RTVSPropertyOp3
 70
     1
102
RTVSPropertyOp4
 70
     1
102
RTVSPropertyOp5
 70
     1
102
RTVSPropertyOp6
 70
     1
102
RTVSPropertyOp7
 70
     1
102
RTVSPropertyOp8
 70
     1
102
RTVSPropertyOp9
 70
     1
102
RTVSPropertyOp10
 70
     1
102
RTVSPropertyOp11
 70
     1
102
RTVSPropertyOp12
 70
     1
102
RTVSPropertyOp13
 70
     1
102
RTVSPropertyOp14
 70
     1
102
RTVSPropertyOp15
 70
     1
102
RTVSPropertyOp16
 70
     1
102
RTVSPropertyOp17
 70
     1
102
RTVSPropertyOp18
 70
     1
102
RTVSPropertyOp19
 70
     1
102
RTVSPropertyOp20
 70
     1
102
RTVSPropertyOp21
 70
     1
102
RTVSPropertyOp22
 70
     1
102
RTVSPropertyOp23
 70
     1
102
RTVSPropertyOp24
 70
     1
102
RTVSPropertyOp25
 70
     1
102
RTVSPropertyOp26
 70
     1
102
RTVSPropertyOp27
 70
     1
102
RTVSPropertyOp28
 70
     1
102
RTVSPropertyOp29
 70
     1
102
RTVSPropertyOp30
 70
     1
102
RTVSPropertyOp31
 70
     1
102
RTVSPropertyOp32
 70
     1
  0
XRECORD
  5
93
102
{ACAD_REACTORS
330
92
102
}
330
92
100
AcDbXrecord
280
     1
102
RTVSPropertyOp0
 70
     1
102
RTVSPropertyOp1
 70
     1
102
RTVSPropertyOp2
 70
     1
102
RTVSPropertyOp3
 70
     1
102
RTVSPropertyOp4
 70
     1
102
RTVSPropertyOp5
 70
     1
102
RTVSPropertyOp6
 70
     1
102
RTVSPropertyOp7
 70
     1
102
RTVSPropertyOp8
 70
     1
102
RTVSPropertyOp9
 70
     1
102
RTVSPropertyOp10
 70
     1
102
RTVSPropertyOp11
 70
     1
102
RTVSPropertyOp12
 70
     1
102
RTVSPropertyOp13
 70
     1
102
RTVSPropertyOp14
 70
     1
102
RTVSPropertyOp15
 70
     1
102
RTVSPropertyOp16
 70
     1
102
RTVSPropertyOp17
 70
     1
102
RTVSPropertyOp18
 70
     1
102
RTVSPropertyOp19
 70
     1
102
RTVSPropertyOp20
 70
     1
102
RTVSPropertyOp21
 70
     1
102
RTVSPropertyOp22
 70
     1
102
RTVSPropertyOp23
 70
     1
102
RTVSPropertyOp24
 70
     1
102
RTVSPropertyOp25
 70
     1
102
RTVSPropertyOp26
 70
     1
102
RTVSPropertyOp27
 70
     1
102
RTVSPropertyOp28
 70
     1
102
RTVSPropertyOp29
 70
     1
102
RTVSPropertyOp30
 70
     1
102
RTVSPropertyOp31
 70
     1
102
RTVSPropertyOp32
 70
     1
  0
XRECORD
  5
97
102
{ACAD_REACTORS
330
96
102
}
330
96
100
AcDbXrecord
280
     1
102
RTVSPropertyOp0
 70
     1
102
RTVSPropertyOp1
 70
     1
102
RTVSPropertyOp2
 70
     1
102
RTVSPropertyOp3
 70
     1
102
RTVSPropertyOp4
 70
     1
102
RTVSPropertyOp5
 70
     1
102
RTVSPropertyOp6
 70
     1
102
RTVSPropertyOp7
 70
     1
102
RTVSPropertyOp8
 70
     1
102
RTVSPropertyOp9
 70
     1
102
RTVSPropertyOp10
 70
     1
102
RTVSPropertyOp11
 70
     1
102
RTVSPropertyOp12
 70
     1
102
RTVSPropertyOp13
 70
     1
102
RTVSPropertyOp14
 70
     1
102
RTVSPropertyOp15
 70
     1
102
RTVSPropertyOp16
 70
     1
102
RTVSPropertyOp17
 70
     1
102
RTVSPropertyOp18
 70
     1
102
RTVSPropertyOp19
 70
     1
102
RTVSPropertyOp20
 70
     1
102
RTVSPropertyOp21
 70
     1
102
RTVSPropertyOp22
 70
     1
102
RTVSPropertyOp23
 70
     1
102
RTVSPropertyOp24
 70
     1
102
RTVSPropertyOp25
 70
     1
102
RTVSPropertyOp26
 70
     1
102
RTVSPropertyOp27
 70
     1
102
RTVSPropertyOp28
 70
     1
102
RTVSPropertyOp29
 70
     1
102
RTVSPropertyOp30
 70
     1
102
RTVSPropertyOp31
 70
     1
102
RTVSPropertyOp32
 70
     1
  0
XRECORD
  5
9F
102
{ACAD_REACTORS
330
9E
102
}
330
9E
100
AcDbXrecord
280
     1
102
RTVSPropertyOp0
 70
     1
102
RTVSPropertyOp1
 70
     1
102
RTVSPropertyOp2
 70
     1
102
RTVSPropertyOp3
 70
     1
102
RTVSPropertyOp4
 70
     1
102
RTVSPropertyOp5
 70
     1
102
RTVSPropertyOp6
 70
     1
102
RTVSPropertyOp7
 70
     1
102
RTVSPropertyOp8
 70
     1
102
RTVSPropertyOp9
 70
     1
102
RTVSPropertyOp10
 70
     1
102
RTVSPropertyOp11
 70
     1
102
RTVSPropertyOp12
 70
     1
102
RTVSPropertyOp13
 70
     1
102
RTVSPropertyOp14
 70
     1
102
RTVSPropertyOp15
 70
     1
102
RTVSPropertyOp16
 70
     1
102
RTVSPropertyOp17
 70
     1
102
RTVSPropertyOp18
 70
     1
102
RTVSPropertyOp19
 70
     1
102
RTVSPropertyOp20
 70
     1
102
RTVSPropertyOp21
 70
     1
102
RTVSPropertyOp22
 70
     1
102
RTVSPropertyOp23
 70
     1
102
RTVSPropertyOp24
 70
     1
102
RTVSPropertyOp25
 70
     1
102
RTVSPropertyOp26
 70
     1
102
RTVSPropertyOp27
 70
     1
102
RTVSPropertyOp28
 70
     1
102
RTVSPropertyOp29
 70
     1
102
RTVSPropertyOp30
 70
     1
102
RTVSPropertyOp31
 70
     1
102
RTVSPropertyOp32
 70
     1
  0
XRECORD
  5
A7
102
{ACAD_REACTORS
330
A6
102
}
330
A6
100
AcDbXrecord
280
     1
102
RTVSPropertyOp0
 70
     1
102
RTVSPropertyOp1
 70
     1
102
RTVSPropertyOp2
 70
     1
102
RTVSPropertyOp3
 70
     1
102
RTVSPropertyOp4
 70
     1
102
RTVSPropertyOp5
 70
     1
102
RTVSPropertyOp6
 70
     1
102
RTVSPropertyOp7
 70
     1
102
RTVSPropertyOp8
 70
     1
102
RTVSPropertyOp9
 70
     1
102
RTVSPropertyOp10
 70
     1
102
RTVSPropertyOp11
 70
     1
102
RTVSPropertyOp12
 70
     1
102
RTVSPropertyOp13
 70
     1
102
RTVSPropertyOp14
 70
     1
102
RTVSPropertyOp15
 70
     1
102
RTVSPropertyOp16
 70
     1
102
RTVSPropertyOp17
 70
     1
102
RTVSPropertyOp18
 70
     1
102
RTVSPropertyOp19
 70
     1
102
RTVSPropertyOp20
 70
     1
102
RTVSPropertyOp21
 70
     1
102
RTVSPropertyOp22
 70
     1
102
RTVSPropertyOp23
 70
     1
102
RTVSPropertyOp24
 70
     1
102
RTVSPropertyOp25
 70
     1
102
RTVSPropertyOp26
 70
     1
102
RTVSPropertyOp27
 70
     1
102
RTVSPropertyOp28
 70
     1
102
RTVSPropertyOp29
 70
     1
102
RTVSPropertyOp30
 70
     1
102
RTVSPropertyOp31
 70
     1
102
RTVSPropertyOp32
 70
     1
  0
XRECORD
  5
9B
102
{ACAD_REACTORS
330
9A
102
}
330
9A
100
AcDbXrecord
280
     1
102
RTVSPropertyOp0
 70
     1
102
RTVSPropertyOp1
 70
     1
102
RTVSPropertyOp2
 70
     1
102
RTVSPropertyOp3
 70
     1
102
RTVSPropertyOp4
 70
     1
102
RTVSPropertyOp5
 70
     1
102
RTVSPropertyOp6
 70
     1
102
RTVSPropertyOp7
 70
     1
102
RTVSPropertyOp8
 70
     1
102
RTVSPropertyOp9
 70
     1
102
RTVSPropertyOp10
 70
     1
102
RTVSPropertyOp11
 70
     1
102
RTVSPropertyOp12
 70
     1
102
RTVSPropertyOp13
 70
     1
102
RTVSPropertyOp14
 70
     1
102
RTVSPropertyOp15
 70
     1
102
RTVSPropertyOp16
 70
     1
102
RTVSPropertyOp17
 70
     1
102
RTVSPropertyOp18
 70
     1
102
RTVSPropertyOp19
 70
     1
102
RTVSPropertyOp20
 70
     1
102
RTVSPropertyOp21
 70
     1
102
RTVSPropertyOp22
 70
     1
102
RTVSPropertyOp23
 70
     1
102
RTVSPropertyOp24
 70
     1
102
RTVSPropertyOp25
 70
     1
102
RTVSPropertyOp26
 70
     1
102
RTVSPropertyOp27
 70
     1
102
RTVSPropertyOp28
 70
     1
102
RTVSPropertyOp29
 70
     1
102
RTVSPropertyOp30
 70
     1
102
RTVSPropertyOp31
 70
     1
102
RTVSPropertyOp32
 70
     1
  0
XRECORD
  5
9D
102
{ACAD_REACTORS
330
9C
102
}
330
9C
100
AcDbXrecord
280
     1
102
RTVSPropertyOp0
 70
     1
102
RTVSPropertyOp1
 70
     1
102
RTVSPropertyOp2
 70
     1
102
RTVSPropertyOp3
 70
     1
102
RTVSPropertyOp4
 70
     1
102
RTVSPropertyOp5
 70
     1
102
RTVSPropertyOp6
 70
     1
102
RTVSPropertyOp7
 70
     1
102
RTVSPropertyOp8
 70
     1
102
RTVSPropertyOp9
 70
     1
102
RTVSPropertyOp10
 70
     1
102
RTVSPropertyOp11
 70
     1
102
RTVSPropertyOp12
 70
     1
102
RTVSPropertyOp13
 70
     1
102
RTVSPropertyOp14
 70
     1
102
RTVSPropertyOp15
 70
     1
102
RTVSPropertyOp16
 70
     1
102
RTVSPropertyOp17
 70
     1
102
RTVSPropertyOp18
 70
     1
102
RTVSPropertyOp19
 70
     1
102
RTVSPropertyOp20
 70
     1
102
RTVSPropertyOp21
 70
     1
102
RTVSPropertyOp22
 70
     1
102
RTVSPropertyOp23
 70
     1
102
RTVSPropertyOp24
 70
     1
102
RTVSPropertyOp25
 70
     1
102
RTVSPropertyOp26
 70
     1
102
RTVSPropertyOp27
 70
     1
102
RTVSPropertyOp28
 70
     1
102
RTVSPropertyOp29
 70
     1
102
RTVSPropertyOp30
 70
     1
102
RTVSPropertyOp31
 70
     1
102
RTVSPropertyOp32
 70
     1
  0
XRECORD
  5
A5
102
{ACAD_REACTORS
330
A4
102
}
330
A4
100
AcDbXrecord
280
     1
102
RTVSPropertyOp0
 70
     1
102
RTVSPropertyOp1
 70
     1
102
RTVSPropertyOp2
 70
     1
102
RTVSPropertyOp3
 70
     1
102
RTVSPropertyOp4
 70
     1
102
RTVSPropertyOp5
 70
     1
102
RTVSPropertyOp6
 70
     1
102
RTVSPropertyOp7
 70
     1
102
RTVSPropertyOp8
 70
     1
102
RTVSPropertyOp9
 70
     1
102
RTVSPropertyOp10
 70
     1
102
RTVSPropertyOp11
 70
     1
102
RTVSPropertyOp12
 70
     1
102
RTVSPropertyOp13
 70
     1
102
RTVSPropertyOp14
 70
     1
102
RTVSPropertyOp15
 70
     1
102
RTVSPropertyOp16
 70
     1
102
RTVSPropertyOp17
 70
     1
102
RTVSPropertyOp18
 70
     1
102
RTVSPropertyOp19
 70
     1
102
RTVSPropertyOp20
 70
     1
102
RTVSPropertyOp21
 70
     1
102
RTVSPropertyOp22
 70
     1
102
RTVSPropertyOp23
 70
     1
102
RTVSPropertyOp24
 70
     1
102
RTVSPropertyOp25
 70
     1
102
RTVSPropertyOp26
 70
     1
102
RTVSPropertyOp27
 70
     1
102
RTVSPropertyOp28
 70
     1
102
RTVSPropertyOp29
 70
     1
102
RTVSPropertyOp30
 70
     1
102
RTVSPropertyOp31
 70
     1
102
RTVSPropertyOp32
 70
     1
  0
XRECORD
  5
89
102
{ACAD_REACTORS
330
88
102
}
330
88
100
AcDbXrecord
280
     1
102
RTVSPropertyOp0
 70
     1
102
RTVSPropertyOp1
 70
     1
102
RTVSPropertyOp2
 70
     1
102
RTVSPropertyOp3
 70
     1
102
RTVSPropertyOp4
 70
     1
102
RTVSPropertyOp5
 70
     1
102
RTVSPropertyOp6
 70
     1
102
RTVSPropertyOp7
 70
     1
102
RTVSPropertyOp8
 70
     1
102
RTVSPropertyOp9
 70
     1
102
RTVSPropertyOp10
 70
     1
102
RTVSPropertyOp11
 70
     1
102
RTVSPropertyOp12
 70
     1
102
RTVSPropertyOp13
 70
     1
102
RTVSPropertyOp14
 70
     1
102
RTVSPropertyOp15
 70
     1
102
RTVSPropertyOp16
 70
     1
102
RTVSPropertyOp17
 70
     1
102
RTVSPropertyOp18
 70
     1
102
RTVSPropertyOp19
 70
     1
102
RTVSPropertyOp20
 70
     1
102
RTVSPropertyOp21
 70
     1
102
RTVSPropertyOp22
 70
     1
102
RTVSPropertyOp23
 70
     1
102
RTVSPropertyOp24
 70
     1
102
RTVSPropertyOp25
 70
     1
102
RTVSPropertyOp26
 70
     1
102
RTVSPropertyOp27
 70
     1
102
RTVSPropertyOp28
 70
     1
102
RTVSPropertyOp29
 70
     1
102
RTVSPropertyOp30
 70
     1
102
RTVSPropertyOp31
 70
     1
102
RTVSPropertyOp32
 70
     1
  0
XRECORD
  5
8B
102
{ACAD_REACTORS
330
8A
102
}
330
8A
100
AcDbXrecord
280
     1
102
RTVSPropertyOp0
 70
     1
102
RTVSPropertyOp1
 70
     1
102
RTVSPropertyOp2
 70
     1
102
RTVSPropertyOp3
 70
     1
102
RTVSPropertyOp4
 70
     1
102
RTVSPropertyOp5
 70
     1
102
RTVSPropertyOp6
 70
     1
102
RTVSPropertyOp7
 70
     1
102
RTVSPropertyOp8
 70
     1
102
RTVSPropertyOp9
 70
     1
102
RTVSPropertyOp10
 70
     1
102
RTVSPropertyOp11
 70
     1
102
RTVSPropertyOp12
 70
     1
102
RTVSPropertyOp13
 70
     1
102
RTVSPropertyOp14
 70
     1
102
RTVSPropertyOp15
 70
     1
102
RTVSPropertyOp16
 70
     1
102
RTVSPropertyOp17
 70
     1
102
RTVSPropertyOp18
 70
     1
102
RTVSPropertyOp19
 70
     1
102
RTVSPropertyOp20
 70
     1
102
RTVSPropertyOp21
 70
     1
102
RTVSPropertyOp22
 70
     1
102
RTVSPropertyOp23
 70
     1
102
RTVSPropertyOp24
 70
     1
102
RTVSPropertyOp25
 70
     1
102
RTVSPropertyOp26
 70
     1
102
RTVSPropertyOp27
 70
     1
102
RTVSPropertyOp28
 70
     1
102
RTVSPropertyOp29
 70
     1
102
RTVSPropertyOp30
 70
     1
102
RTVSPropertyOp31
 70
     1
102
RTVSPropertyOp32
 70
     1
  0
XRECORD
  5
8D
102
{ACAD_REACTORS
330
8C
102
}
330
8C
100
AcDbXrecord
280
     1
102
RTVSPropertyOp0
 70
     1
102
RTVSPropertyOp1
 70
     1
102
RTVSPropertyOp2
 70
     1
102
RTVSPropertyOp3
 70
     1
102
RTVSPropertyOp4
 70
     1
102
RTVSPropertyOp5
 70
     1
102
RTVSPropertyOp6
 70
     1
102
RTVSPropertyOp7
 70
     1
102
RTVSPropertyOp8
 70
     1
102
RTVSPropertyOp9
 70
     1
102
RTVSPropertyOp10
 70
     1
102
RTVSPropertyOp11
 70
     1
102
RTVSPropertyOp12
 70
     1
102
RTVSPropertyOp13
 70
     1
102
RTVSPropertyOp14
 70
     1
102
RTVSPropertyOp15
 70
     1
102
RTVSPropertyOp16
 70
     1
102
RTVSPropertyOp17
 70
     1
102
RTVSPropertyOp18
 70
     1
102
RTVSPropertyOp19
 70
     1
102
RTVSPropertyOp20
 70
     1
102
RTVSPropertyOp21
 70
     1
102
RTVSPropertyOp22
 70
     1
102
RTVSPropertyOp23
 70
     1
102
RTVSPropertyOp24
 70
     1
102
RTVSPropertyOp25
 70
     1
102
RTVSPropertyOp26
 70
     1
102
RTVSPropertyOp27
 70
     1
102
RTVSPropertyOp28
 70
     1
102
RTVSPropertyOp29
 70
     1
102
RTVSPropertyOp30
 70
     1
102
RTVSPropertyOp31
 70
     1
102
RTVSPropertyOp32
 70
     1
  0
XRECORD
  5
8F
102
{ACAD_REACTORS
330
8E
102
}
330
8E
100
AcDbXrecord
280
     1
102
RTVSPropertyOp0
 70
     1
102
RTVSPropertyOp1
 70
     1
102
RTVSPropertyOp2
 70
     1
102
RTVSPropertyOp3
 70
     1
102
RTVSPropertyOp4
 70
     1
102
RTVSPropertyOp5
 70
     1
102
RTVSPropertyOp6
 70
     1
102
RTVSPropertyOp7
 70
     1
102
RTVSPropertyOp8
 70
     1
102
RTVSPropertyOp9
 70
     1
102
RTVSPropertyOp10
 70
     1
102
RTVSPropertyOp11
 70
     1
102
RTVSPropertyOp12
 70
     1
102
RTVSPropertyOp13
 70
     1
102
RTVSPropertyOp14
 70
     1
102
RTVSPropertyOp15
 70
     1
102
RTVSPropertyOp16
 70
     1
102
RTVSPropertyOp17
 70
     1
102
RTVSPropertyOp18
 70
     1
102
RTVSPropertyOp19
 70
     1
102
RTVSPropertyOp20
 70
     1
102
RTVSPropertyOp21
 70
     1
102
RTVSPropertyOp22
 70
     1
102
RTVSPropertyOp23
 70
     1
102
RTVSPropertyOp24
 70
     1
102
RTVSPropertyOp25
 70
     1
102
RTVSPropertyOp26
 70
     1
102
RTVSPropertyOp27
 70
     1
102
RTVSPropertyOp28
 70
     1
102
RTVSPropertyOp29
 70
     1
102
RTVSPropertyOp30
 70
     1
102
RTVSPropertyOp31
 70
     1
102
RTVSPropertyOp32
 70
     1
  0
XRECORD
  5
A3
102
{ACAD_REACTORS
330
A2
102
}
330
A2
100
AcDbXrecord
280
     1
102
RTVSPropertyOp0
 70
     1
102
RTVSPropertyOp1
 70
     1
102
RTVSPropertyOp2
 70
     1
102
RTVSPropertyOp3
 70
     1
102
RTVSPropertyOp4
 70
     1
102
RTVSPropertyOp5
 70
     1
102
RTVSPropertyOp6
 70
     1
102
RTVSPropertyOp7
 70
     1
102
RTVSPropertyOp8
 70
     1
102
RTVSPropertyOp9
 70
     1
102
RTVSPropertyOp10
 70
     1
102
RTVSPropertyOp11
 70
     1
102
RTVSPropertyOp12
 70
     1
102
RTVSPropertyOp13
 70
     1
102
RTVSPropertyOp14
 70
     1
102
RTVSPropertyOp15
 70
     1
102
RTVSPropertyOp16
 70
     1
102
RTVSPropertyOp17
 70
     1
102
RTVSPropertyOp18
 70
     1
102
RTVSPropertyOp19
 70
     1
102
RTVSPropertyOp20
 70
     1
102
RTVSPropertyOp21
 70
     1
102
RTVSPropertyOp22
 70
     1
102
RTVSPropertyOp23
 70
     1
102
RTVSPropertyOp24
 70
     1
102
RTVSPropertyOp25
 70
     1
102
RTVSPropertyOp26
 70
     1
102
RTVSPropertyOp27
 70
     1
102
RTVSPropertyOp28
 70
     1
102
RTVSPropertyOp29
 70
     1
102
RTVSPropertyOp30
 70
     1
102
RTVSPropertyOp31
 70
     1
102
RTVSPropertyOp32
 70
     1
  0
XRECORD
  5
99
102
{ACAD_REACTORS
330
98
102
}
330
98
100
AcDbXrecord
280
     1
102
RTVSPropertyOp0
 70
     1
102
RTVSPropertyOp1
 70
     1
102
RTVSPropertyOp2
 70
     1
102
RTVSPropertyOp3
 70
     1
102
RTVSPropertyOp4
 70
     1
102
RTVSPropertyOp5
 70
     1
102
RTVSPropertyOp6
 70
     1
102
RTVSPropertyOp7
 70
     1
102
RTVSPropertyOp8
 70
     1
102
RTVSPropertyOp9
 70
     1
102
RTVSPropertyOp10
 70
     1
102
RTVSPropertyOp11
 70
     1
102
RTVSPropertyOp12
 70
     1
102
RTVSPropertyOp13
 70
     1
102
RTVSPropertyOp14
 70
     1
102
RTVSPropertyOp15
 70
     1
102
RTVSPropertyOp16
 70
     1
102
RTVSPropertyOp17
 70
     1
102
RTVSPropertyOp18
 70
     1
102
RTVSPropertyOp19
 70
     1
102
RTVSPropertyOp20
 70
     1
102
RTVSPropertyOp21
 70
     1
102
RTVSPropertyOp22
 70
     1
102
RTVSPropertyOp23
 70
     1
102
RTVSPropertyOp24
 70
     1
102
RTVSPropertyOp25
 70
     1
102
RTVSPropertyOp26
 70
     1
102
RTVSPropertyOp27
 70
     1
102
RTVSPropertyOp28
 70
     1
102
RTVSPropertyOp29
 70
     1
102
RTVSPropertyOp30
 70
     1
102
RTVSPropertyOp31
 70
     1
102
RTVSPropertyOp32
 70
     1
  0
XRECORD
  5
A1
102
{ACAD_REACTORS
330
A0
102
}
330
A0
100
AcDbXrecord
280
     1
102
RTVSPropertyOp0
 70
     1
102
RTVSPropertyOp1
 70
     1
102
RTVSPropertyOp2
 70
     1
102
RTVSPropertyOp3
 70
     1
102
RTVSPropertyOp4
 70
     1
102
RTVSPropertyOp5
 70
     1
102
RTVSPropertyOp6
 70
     1
102
RTVSPropertyOp7
 70
     1
102
RTVSPropertyOp8
 70
     1
102
RTVSPropertyOp9
 70
     1
102
RTVSPropertyOp10
 70
     1
102
RTVSPropertyOp11
 70
     1
102
RTVSPropertyOp12
 70
     1
102
RTVSPropertyOp13
 70
     1
102
RTVSPropertyOp14
 70
     1
102
RTVSPropertyOp15
 70
     1
102
RTVSPropertyOp16
 70
     1
102
RTVSPropertyOp17
 70
     1
102
RTVSPropertyOp18
 70
     1
102
RTVSPropertyOp19
 70
     1
102
RTVSPropertyOp20
 70
     1
102
RTVSPropertyOp21
 70
     1
102
RTVSPropertyOp22
 70
     1
102
RTVSPropertyOp23
 70
     1
102
RTVSPropertyOp24
 70
     1
102
RTVSPropertyOp25
 70
     1
102
RTVSPropertyOp26
 70
     1
102
RTVSPropertyOp27
 70
     1
102
RTVSPropertyOp28
 70
     1
102
RTVSPropertyOp29
 70
     1
102
RTVSPropertyOp30
 70
     1
102
RTVSPropertyOp31
 70
     1
102
RTVSPropertyOp32
 70
     1
  0
ENDSEC
  0
EOF
